<?xml version="1.0" encoding="utf-8"?>
<!-- Generator: Adobe Illustrator 27.5.0, SVG Export Plug-In . SVG Version: 6.00 Build 0)  -->
<svg version="1.1" xmlns="http://www.w3.org/2000/svg" xmlns:xlink="http://www.w3.org/1999/xlink" x="0px" y="0px"
	 viewBox="0 0 1122 1122" style="enable-background:new 0 0 1122 1122;" xml:space="preserve">
<g id="Bg">
	<g>
		<g>
			<rect style="fill:#FFFFFF;" width="1122" height="1122"/>
		</g>
	</g>
</g>
<g id="Object">
	<g>
		<path style="fill:#616E7D;" d="M240.712,396.891v399.533c0,2.154,2.384,3.329,3.915,1.921L452.4,608.223
			c2.481-2.227,2.523-6.228,0.182-8.563L244.724,395.036C243.169,393.538,240.712,394.688,240.712,396.891z"/>
		<path style="fill:#616E7D;" d="M646.926,618.242l-48.483,47.73c-10.718,10.564-24.801,16.383-39.629,16.383
			c-14.337,0-27.852-5.513-37.983-15.493l-49.415-48.64l-1.392-1.383L265.749,803.74c-0.896,0.823-0.351,2.394,0.835,2.394h585.198
			c1.205,0,1.725-1.571,0.829-2.394L648.323,616.837L646.926,618.242z"/>
		<path style="fill:#616E7D;" d="M665.917,608.223l207.356,189.699c1.549,1.407,3.934,0.257,3.934-1.904V506.155
			c38.388-13.233,66.082-49.636,66.082-92.463c0-53.948-43.877-97.826-97.825-97.826c-40.537,0-75.409,24.795-90.206,60.024H254.486
			c-1.162,0-1.725,1.523-0.871,2.367l216.845,213.468l13.006,12.819l49.415,48.616c1.785,1.786,3.698,3.307,5.78,4.624l2.227,1.174
			c1.398,0.75,2.754,1.549,4.219,2.118l2.82,0.814c1.356,0.402,2.687,0.871,4.085,1.125l3.063,0.281
			c1.331,0.115,2.675,0.33,4.067,0.309c1.356,0,2.735-0.233,4.134-0.399l3.171-0.357c1.44-0.266,2.833-0.781,4.225-1.241
			l2.887-0.893c1.549-0.62,2.99-1.504,4.46-2.321l2.288-1.223c2.154-1.41,4.2-3.026,6.1-4.902l48.471-47.726l13.018-12.819
			l120.224-118.339c3.722,4.814,7.892,9.263,12.425,13.308L665.784,599.659C663.424,602.007,663.496,606.001,665.917,608.223z
			 M772.615,413.691c0-40.174,32.675-72.837,72.849-72.837c40.149,0,72.843,32.663,72.843,72.837
			c0,40.173-32.693,72.836-72.843,72.836C805.29,486.528,772.615,453.865,772.615,413.691z"/>
		<path style="fill:#AAD4C8;" d="M772.615,413.691c0,40.173,32.675,72.836,72.849,72.836c40.149,0,72.843-32.663,72.843-72.836
			c0-40.174-32.693-72.837-72.843-72.837C805.29,340.855,772.615,373.517,772.615,413.691z M844.616,399.493
			c8.055,0,16.213,1.834,22.199,6.104c6.361,4.294,10.252,11.308,10.252,21.176c0,15.711-13.484,29.604-36.24,29.604
			c-10.246,0-18.81-2.322-23.5-4.815l3.522-14.801c3.759,1.834,11.438,4.152,19.07,4.152c8.194,0,16.903-3.87,16.903-12.837
			c0-8.705-6.906-14.034-23.785-14.034c-4.666,0-7.91,0.26-11.414,0.799l5.586-44.283h46.485v16.22h-32.711l-1.839,12.988
			C840.985,399.493,842.534,399.493,844.616,399.493z"/>
		<path style="fill:#FFFFFF;" d="M839.92,440.913c-7.632,0-15.312-2.318-19.07-4.152l-3.522,14.801
			c4.691,2.493,13.254,4.815,23.5,4.815c22.756,0,36.24-13.893,36.24-29.604c0-9.868-3.891-16.882-10.252-21.176
			c-5.985-4.27-14.143-6.104-22.199-6.104c-2.082,0-3.632,0-5.471,0.273l1.839-12.988h32.711v-16.22H827.21l-5.586,44.283
			c3.504-0.538,6.748-0.799,11.414-0.799c16.879,0,23.785,5.329,23.785,14.034C856.823,437.043,848.114,440.913,839.92,440.913z"/>
	</g>
</g>
</svg>
