<?xml version="1.0" encoding="utf-8"?>
<!-- Generator: Adobe Illustrator 27.5.0, SVG Export Plug-In . SVG Version: 6.00 Build 0)  -->
<svg version="1.1" xmlns="http://www.w3.org/2000/svg" xmlns:xlink="http://www.w3.org/1999/xlink" x="0px" y="0px"
	 viewBox="0 0 500 500" style="enable-background:new 0 0 500 500;" xml:space="preserve">
<g id="BACKGROUND">
	<rect style="fill:#FFFFFF;" width="500" height="500"/>
</g>
<g id="OBJECTS">
	<path style="fill-rule:evenodd;clip-rule:evenodd;fill:#EEF5FF;" d="M90.66,276.42c18.326,2.717,30.981,19.776,28.264,38.103
		c-2.716,18.327-19.776,30.981-38.102,28.265c-18.327-2.717-30.981-19.776-28.265-38.103
		C55.273,286.357,72.333,273.703,90.66,276.42 M347.147,68.653c11.048,1.637,18.676,11.922,17.039,22.97
		c-1.638,11.048-11.922,18.676-22.97,17.039c-11.048-1.638-18.676-11.921-17.039-22.97
		C325.816,74.644,336.099,67.015,347.147,68.653z M404.654,120.349c6.821,1.011,11.531,7.361,10.52,14.182
		c-1.011,6.821-7.361,11.532-14.182,10.52c-6.821-1.011-11.531-7.361-10.52-14.182C391.483,124.048,397.833,119.338,404.654,120.349
		z M129.29,345.447c7.653,1.135,12.938,8.258,11.803,15.911c-1.135,7.653-8.258,12.938-15.912,11.803
		c-7.653-1.134-12.937-8.259-11.802-15.911C114.513,349.597,121.637,344.312,129.29,345.447z M435.761,121.604
		c3.522,0.522,5.954,3.8,5.431,7.323c-0.522,3.522-3.8,5.954-7.322,5.432c-3.523-0.522-5.954-3.8-5.432-7.322
		C428.96,123.514,432.239,121.082,435.761,121.604z M311.889,113.936c36.21,5.368,67.749,22.537,91.31,47.019
		c5.163-4.918,12.456-7.492,20.056-6.366c13.091,1.941,22.131,14.126,20.19,27.218c-1.179,7.948-6.133,14.402-12.774,17.812
		c14.378,28.382,20.417,61.335,15.397,95.202c-4.113,27.746-15.16,52.746-31.109,73.522c10.523,7.276,16.601,20.118,14.598,33.628
		c-2.808,18.946-20.443,32.027-39.389,29.219c-11.877-1.761-21.448-9.349-26.246-19.433c-29.161,15.703-63.456,22.473-98.739,17.243
		c-81.455-12.075-139.302-83.833-135.764-164.334c-25.449-12.665-41.053-40.653-36.659-70.294
		c5.463-36.855,39.77-62.303,76.624-56.84c8.077,1.197,15.605,3.78,22.38,7.471C224.766,119.755,267.542,107.362,311.889,113.936z"
		/>
	<g id="XMLID_00000168099684498659289020000001341168193271659193_">
		<path id="XMLID_00000057128366521425262310000004263008760303490748_" style="fill:#FFFFFF;" d="M274.981,420.731
			c-0.517,0-1.043-0.003-1.566-0.009l0.024-2.067c1.378,0.016,2.754,0.01,4.103-0.016l0.04,2.067
			C276.723,420.722,275.848,420.731,274.981,420.731z M267.171,420.506c-1.379-0.08-2.777-0.182-4.155-0.304l0.183-2.059
			c1.357,0.121,2.733,0.221,4.091,0.3L267.171,420.506z M283.825,420.442l-0.135-2.063c1.356-0.088,2.731-0.2,4.088-0.331
			l0.199,2.058C286.599,420.239,285.202,420.352,283.825,420.442z M256.808,419.503c-1.371-0.187-2.757-0.397-4.119-0.627
			l0.343-2.039c1.341,0.225,2.705,0.433,4.055,0.617L256.808,419.503z M294.18,419.359l-0.295-2.046
			c1.347-0.194,2.71-0.412,4.05-0.648l0.359,2.036C296.933,418.941,295.549,419.162,294.18,419.359z M246.553,417.696
			c-1.351-0.293-2.716-0.612-4.057-0.947l0.502-2.006c1.321,0.33,2.664,0.644,3.994,0.933L246.553,417.696z M304.421,417.472
			l-0.454-2.017c1.328-0.299,2.669-0.623,3.987-0.964l0.517,2.002C307.133,416.839,305.77,417.168,304.421,417.472z M236.47,415.089
			c-1.327-0.399-2.667-0.826-3.984-1.268l0.658-1.96c1.296,0.435,2.616,0.855,3.922,1.248L236.47,415.089z M314.482,414.787
			l-0.611-1.975c1.302-0.403,2.613-0.832,3.899-1.274l0.673,1.955C317.137,413.942,315.804,414.378,314.482,414.787z
			 M226.597,411.688c-1.292-0.503-2.594-1.033-3.869-1.577l0.81-1.902c1.255,0.535,2.537,1.057,3.808,1.552L226.597,411.688z
			 M324.302,411.319l-0.765-1.921c1.261-0.502,2.531-1.031,3.775-1.571l0.824,1.896
			C326.873,410.272,325.583,410.809,324.302,411.319z M217.028,407.523c-1.248-0.603-2.503-1.233-3.731-1.874l0.957-1.833
			c1.208,0.631,2.444,1.252,3.672,1.845L217.028,407.523z M333.795,407.103l-0.912-1.855c1.218-0.599,2.443-1.226,3.643-1.863
			l0.97,1.826C336.277,405.858,335.032,406.494,333.795,407.103z M207.82,402.622c-1.196-0.698-2.397-1.424-3.57-2.159l1.098-1.752
			c1.155,0.724,2.338,1.439,3.515,2.126L207.82,402.622z M342.937,402.154l-1.055-1.778c1.169-0.694,2.343-1.415,3.489-2.143
			l1.109,1.745C345.317,400.718,344.124,401.45,342.937,402.154z M199.028,397.02c-1.136-0.788-2.276-1.605-3.389-2.43l1.231-1.661
			c1.096,0.812,2.219,1.617,3.337,2.392L199.028,397.02z M351.669,396.506l-1.19-1.691c1.112-0.783,2.227-1.593,3.314-2.409
			l1.242,1.653C353.931,394.888,352.799,395.711,351.669,396.506z M190.703,390.752c-1.072-0.874-2.145-1.777-3.189-2.684
			l1.356-1.561c1.028,0.893,2.084,1.782,3.139,2.643L190.703,390.752z M359.94,390.193l-1.317-1.594
			c1.048-0.867,2.098-1.762,3.119-2.661l1.366,1.552C362.071,388.404,361.005,389.313,359.94,390.193z M182.892,383.861
			c-1-0.954-1.999-1.937-2.97-2.922l1.473-1.451c0.956,0.97,1.939,1.938,2.924,2.877L182.892,383.861z M367.7,383.255l-1.437-1.487
			c0.979-0.947,1.957-1.921,2.905-2.896l1.482,1.442C369.687,381.304,368.695,382.293,367.7,383.255z M175.643,376.387
			c-0.923-1.028-1.842-2.085-2.733-3.142l1.581-1.333c0.877,1.04,1.782,2.081,2.691,3.093L175.643,376.387z M374.902,375.733
			l-1.548-1.371c0.902-1.019,1.801-2.066,2.673-3.114l1.59,1.322C376.732,373.634,375.819,374.698,374.902,375.733z
			 M168.997,368.378c-0.84-1.096-1.674-2.221-2.48-3.342l1.679-1.206c0.793,1.105,1.615,2.212,2.441,3.291L168.997,368.378z
			 M381.502,367.672l-1.649-1.247c0.821-1.086,1.637-2.201,2.424-3.313l1.688,1.195
			C383.164,365.436,382.336,366.569,381.502,367.672z M162.996,359.88c-0.752-1.157-1.496-2.343-2.211-3.523l1.768-1.072
			c0.704,1.162,1.437,2.329,2.177,3.469L162.996,359.88z M387.457,359.118l-1.742-1.114c0.735-1.149,1.462-2.325,2.159-3.494
			l1.776,1.059C388.942,356.758,388.204,357.952,387.457,359.118z M157.676,350.946c-0.66-1.214-1.309-2.453-1.928-3.683l1.846-0.93
			c0.61,1.211,1.249,2.43,1.899,3.625L157.676,350.946z M392.73,350.123l-1.823-0.975c0.644-1.204,1.276-2.433,1.881-3.654
			l1.853,0.917C394.026,347.651,393.384,348.9,392.73,350.123z M153.072,341.63c-0.562-1.259-1.112-2.544-1.634-3.819l1.914-0.783
			c0.514,1.255,1.055,2.52,1.608,3.76L153.072,341.63z M397.284,340.737l-1.894-0.829c0.547-1.249,1.081-2.525,1.589-3.793
			l1.919,0.769C398.383,338.172,397.84,339.468,397.284,340.737z M149.208,331.973c-0.463-1.302-0.911-2.63-1.333-3.948l1.969-0.63
			c0.415,1.297,0.857,2.604,1.312,3.886L149.208,331.973z M401.089,331.016l-1.954-0.677c0.447-1.288,0.879-2.603,1.286-3.909
			l1.974,0.615C401.983,328.371,401.543,329.707,401.089,331.016z M146.111,322.03c-0.359-1.335-0.701-2.694-1.018-4.04l2.013-0.474
			c0.312,1.325,0.649,2.663,1.003,3.977L146.111,322.03z M404.114,321.036l-2.001-0.521c0.343-1.317,0.67-2.658,0.972-3.985
			l2.016,0.458C404.795,318.337,404.463,319.698,404.114,321.036z M143.804,311.876c-0.253-1.359-0.488-2.741-0.698-4.107
			l2.043-0.315c0.207,1.346,0.439,2.706,0.688,4.043L143.804,311.876z M406.342,310.864l-2.035-0.363
			c0.239-1.338,0.459-2.7,0.656-4.049l2.046,0.299C406.809,308.121,406.584,309.505,406.342,310.864z M142.3,301.572
			c-0.146-1.374-0.273-2.769-0.376-4.149l2.062-0.155c0.102,1.358,0.227,2.733,0.37,4.085L142.3,301.572z M407.767,300.549
			l-2.057-0.203c0.134-1.355,0.248-2.73,0.339-4.088l2.063,0.139C408.019,297.776,407.903,299.173,407.767,300.549z M141.6,291.184
			c-0.037-1.288-0.056-2.597-0.056-3.889l0-0.277l2.068,0.004l0,0.273c0,1.273,0.018,2.561,0.055,3.83L141.6,291.184z
			 M408.387,290.156l-2.067-0.043c0.02-0.935,0.03-1.883,0.03-2.818c0-0.429-0.002-0.857-0.006-1.284l2.068-0.02
			c0.004,0.434,0.006,0.869,0.006,1.304C408.417,288.244,408.407,289.207,408.387,290.156z M143.766,280.871l-2.065-0.099
			c0.067-1.381,0.155-2.78,0.265-4.157l2.061,0.163C143.919,278.134,143.832,279.511,143.766,280.871z M406.143,279.859
			c-0.076-1.358-0.174-2.735-0.292-4.091l2.06-0.179c0.12,1.378,0.22,2.776,0.296,4.156L406.143,279.859z M144.655,270.658
			l-2.051-0.259c0.173-1.372,0.371-2.759,0.587-4.125l2.042,0.323C145.02,267.942,144.826,269.308,144.655,270.658z
			 M405.175,269.654c-0.181-1.349-0.386-2.714-0.609-4.056l2.04-0.339c0.227,1.363,0.435,2.75,0.618,4.12L405.175,269.654z
			 M146.337,260.546l-2.025-0.419c0.28-1.354,0.585-2.722,0.908-4.066l2.011,0.482C146.913,257.867,146.613,259.213,146.337,260.546
			z M403.416,259.555c-0.286-1.33-0.597-2.675-0.925-3.996l2.007-0.498c0.333,1.342,0.649,2.708,0.939,4.059L403.416,259.555z
			 M148.806,250.597l-1.986-0.576c0.385-1.327,0.797-2.667,1.225-3.982l1.966,0.639C149.591,247.971,149.186,249.29,148.806,250.597
			z M400.87,249.625c-0.39-1.305-0.806-2.621-1.236-3.911l1.961-0.654c0.437,1.311,0.859,2.647,1.256,3.973L400.87,249.625z
			 M152.055,240.858l-1.934-0.731c0.49-1.296,1.008-2.603,1.539-3.884l1.91,0.792C153.047,238.295,152.537,239.582,152.055,240.858z
			 M397.551,239.926c-0.49-1.266-1.006-2.541-1.534-3.789l1.904-0.806c0.537,1.268,1.061,2.563,1.558,3.849L397.551,239.926z
			 M156.063,231.397l-1.871-0.881c0.59-1.253,1.208-2.514,1.838-3.749l1.842,0.939C157.253,228.922,156.644,230.164,156.063,231.397
			z M393.492,230.541c-0.586-1.222-1.201-2.454-1.827-3.661l1.835-0.952c0.636,1.226,1.26,2.477,1.856,3.719L393.492,230.541z
			 M160.799,222.286l-1.796-1.025c0.686-1.202,1.401-2.411,2.124-3.591l1.763,1.08C162.178,219.912,161.474,221.102,160.799,222.286
			z M388.709,221.496c-0.681-1.175-1.391-2.356-2.109-3.51l1.755-1.092c0.729,1.172,1.45,2.371,2.142,3.565L388.709,221.496z
			 M166.23,213.576l-1.71-1.162c0.777-1.144,1.583-2.292,2.397-3.413l1.673,1.214C167.789,211.319,166.995,212.45,166.23,213.576z
			 M383.232,212.845c-0.771-1.118-1.57-2.241-2.377-3.337l1.665-1.225c0.819,1.113,1.631,2.254,2.414,3.39L383.232,212.845z
			 M172.321,205.319l-1.615-1.291c0.864-1.08,1.756-2.162,2.653-3.215l1.574,1.341C174.05,203.191,173.171,204.256,172.321,205.319z
			 M377.096,204.642c-0.855-1.055-1.74-2.113-2.63-3.144l1.565-1.351c0.904,1.047,1.803,2.122,2.671,3.194L377.096,204.642z
			 M179.032,197.563l-1.51-1.413c0.944-1.009,1.918-2.018,2.893-2.998l1.465,1.459C180.92,195.577,179.962,196.57,179.032,197.563z
			 M370.339,196.937c-0.936-0.987-1.901-1.974-2.867-2.933l1.456-1.468c0.982,0.974,1.962,1.976,2.912,2.978L370.339,196.937z
			 M186.321,190.354l-1.396-1.525c1.021-0.934,2.069-1.864,3.115-2.763l1.348,1.568
			C188.358,188.519,187.326,189.435,186.321,190.354z M363.003,189.774c-1.012-0.914-2.05-1.823-3.087-2.703l1.337-1.577
			c1.053,0.894,2.108,1.817,3.136,2.745L363.003,189.774z M194.144,183.734l-1.273-1.629c1.089-0.851,2.206-1.696,3.319-2.512
			l1.222,1.668C196.316,182.064,195.216,182.896,194.144,183.734z M355.13,183.2c-1.079-0.832-2.186-1.659-3.29-2.456l1.211-1.676
			c1.121,0.81,2.245,1.649,3.341,2.494L355.13,183.2z M202.453,177.744l-1.143-1.723c1.15-0.763,2.328-1.518,3.502-2.245
			l1.089,1.758C204.745,176.25,203.585,176.993,202.453,177.744z M346.767,177.256c-1.141-0.746-2.31-1.484-3.473-2.193l1.077-1.765
			c1.181,0.721,2.368,1.47,3.527,2.228L346.767,177.256z M211.198,172.422l-1.005-1.807c1.205-0.671,2.438-1.332,3.664-1.964
			l0.948,1.837C213.598,171.111,212.384,171.761,211.198,172.422z M337.962,171.979c-1.196-0.655-2.419-1.299-3.635-1.916
			l0.935-1.844c1.235,0.626,2.477,1.281,3.692,1.946L337.962,171.979z M220.325,167.8l-0.861-1.88
			c1.253-0.574,2.532-1.136,3.803-1.671l0.802,1.906C222.818,166.682,221.558,167.235,220.325,167.8z M328.767,167.405
			c-1.245-0.559-2.515-1.106-3.777-1.626l0.788-1.912c1.281,0.528,2.572,1.083,3.837,1.652L328.767,167.405z M229.78,163.909
			l-0.711-1.941c1.298-0.476,2.622-0.937,3.934-1.372l0.65,1.963C232.361,162.986,231.058,163.44,229.78,163.909z M319.235,163.566
			c-1.285-0.46-2.596-0.905-3.896-1.325l0.635-1.968c1.32,0.426,2.652,0.878,3.957,1.346L319.235,163.566z M239.536,160.763
			l-0.557-1.991c1.332-0.372,2.688-0.728,4.03-1.058l0.494,2.008C242.182,160.046,240.848,160.396,239.536,160.763z
			 M309.442,160.492c-1.312-0.356-2.649-0.696-3.975-1.011l0.478-2.012c1.347,0.32,2.705,0.665,4.038,1.027L309.442,160.492z
			 M249.51,158.393l-0.399-2.029c1.355-0.266,2.735-0.515,4.1-0.739l0.335,2.04C252.202,157.886,250.844,158.131,249.51,158.393z
			 M299.45,158.2c-1.337-0.252-2.697-0.486-4.042-0.696l0.319-2.043c1.366,0.213,2.748,0.451,4.106,0.707L299.45,158.2z
			 M259.638,156.812l-0.239-2.054c1.373-0.16,2.767-0.3,4.145-0.417l0.175,2.06C262.363,156.517,260.99,156.655,259.638,156.812z
			 M289.309,156.698c-1.353-0.147-2.727-0.274-4.084-0.379l0.159-2.061c1.379,0.106,2.774,0.236,4.148,0.385L289.309,156.698z
			 M269.86,156.024l-0.079-2.066c1.378-0.053,2.778-0.085,4.162-0.095l0.016,2.068C272.596,155.94,271.217,155.972,269.86,156.024z
			 M279.082,155.989c-1.359-0.042-2.739-0.063-4.102-0.063v-2.068c1.383,0,2.785,0.021,4.165,0.064L279.082,155.989z"/>
	</g>
	<g>
		<g>
			<g>
				<path style="fill:#008890;" d="M105.646,222.516c-0.035-3.933-1.011-9.064-2.552-14.673l-5.859,7.897l5.019-10.822
					c-1.763-5.882-4.05-12.136-6.462-17.993l-5.364,10.029L93.5,181.56c-0.719-1.623-1.437-3.192-2.146-4.686
					c-1.378-2.906-4.243-8.894-7.836-13.764l-2.39,8.054l-0.517-11.521c-5.069-5.196-11.031-6.71-16.242,4.553
					c-1.853,4.004-2.247,8.435-1.615,13.04l13.549,11.118l-12.009-4.489c1.685,5.27,4.398,10.608,7.537,15.661l14.979,9.575
					l-11.137-3.799c3.782,5.344,7.801,10.157,11.214,13.946l5.406,1.754l-3.017,0.84c2.354,2.5,4.228,4.325,5.24,5.249
					c3.143,2.869,5.288,3.245,6.601,2.98c0.779-0.099,1.82-0.37,2.702-1.079C104.659,228.53,105.686,227.043,105.646,222.516z"/>
				<path style="fill:#008890;" d="M154.012,231.819c0.387-0.93,0.646-1.765,0.664-2.508c0.088-3.546-3.939-2.281-3.939-2.281
					c-3.365,1.537-6.216,3.664-8.607,6.132l-2.058,9.449l-0.025-7.075c-2.563,3.221-4.474,6.831-5.828,10.391l2.193,7.826
					l-3.002-5.506c-0.746,2.35-1.253,4.633-1.55,6.719l2.108,4.34l-2.36-2.016c-0.161,2.214-0.056,4.096,0.272,5.438
					c1.696,6.938,6.804,4.121,6.804,4.121c4.557-1.467,7.935-5.348,9.748-10.021l-6.896,3.625l7.836-6.696
					c0.519-2.266,0.693-4.626,0.48-6.925c-0.05-0.536-0.073-1.059-0.074-1.573l-6.008,3.749l6.206-6.413
					c0.557-3.741,2.181-6.809,3.367-9.293l-3.446,1.15L154.012,231.819z"/>
				<g>
					<path style="fill:#006B6B;" d="M151.647,288.794c-0.113-0.029-2.803-0.726-5.913-3.192c-2.863-2.27-6.617-6.532-8.243-13.943
						c-0.985-4.487-0.927-9.473,0.172-14.818c0.877-4.267,2.417-8.772,4.575-13.39c3.673-7.857,7.928-13.398,7.971-13.453
						l0.428,0.331c-0.042,0.055-4.267,5.557-7.914,13.362c-3.358,7.186-6.899,17.851-4.704,27.851
						c1.589,7.242,5.244,11.402,8.029,13.617c3.021,2.402,5.704,3.102,5.73,3.109L151.647,288.794z"/>
				</g>
				<path style="fill:#008890;" d="M76.145,219.461l-2.693-8.146c-0.145-0.125-0.287-0.25-0.434-0.376
					c-4.382-3.766-9.717-6.516-15.134-8.491l5.25,8.905l-9.155-10.196c-5.005-1.495-9.901-2.372-13.999-2.819l3.386,6.51
					l-7.199-6.82c-1.99-0.103-3.647-0.086-4.838,0.016c-6.776,0.581-16.719,9.243,2.498,21.006c2.452,1.501,5.04,2.907,7.701,4.219
					l10.949-4.711l-7.894,6.162c3.813,1.746,7.722,3.303,11.552,4.667l9.658-5.476l-7.754,6.141c4.918,1.683,9.652,3.042,13.82,4.07
					l7.806-4.279l-4.316,5.094c5.139,1.127,9.04,1.645,10.755,1.537c4.057-0.256,4.052-3.933,3.782-5.805
					c-0.362-1.436-1.151-2.662-1.151-2.662l0.013-0.011c-1.557-2.469-5.33-7.677-13.045-14.685L76.145,219.461z"/>
				<g>
					<path style="fill:#006B6B;" d="M138.989,293.242l-0.455,0.293c-0.248-0.386-25.038-38.816-42.7-56.566
						c-9.202-9.248-26.136-16.383-38.721-20.741c-13.653-4.727-25.274-7.293-25.39-7.319l0.116-0.529
						c0.116,0.025,11.763,2.597,25.445,7.334c8.039,2.783,15.198,5.758,21.28,8.842c7.614,3.862,13.553,7.909,17.654,12.03
						C113.92,254.378,138.741,292.856,138.989,293.242z"/>
				</g>
				<path style="fill:#006B6B;" d="M151.884,298.089c-0.052-0.045-5.32-4.604-12.977-13.011
					c-7.064-7.756-17.669-20.471-28.075-37.002c-10.405-16.529-20.182-37.835-26.552-52.798
					c-6.901-16.209-11.401-28.674-11.445-28.798l0.509-0.183c0.045,0.124,4.54,12.577,11.435,28.773
					c6.362,14.944,16.126,36.221,26.511,52.719c10.382,16.493,20.962,29.179,28.009,36.918c7.637,8.385,12.885,12.929,12.937,12.973
					L151.884,298.089z"/>
				<path style="fill:#008890;" d="M153.339,191.21c-1.167-0.729-3.071-0.601-4.027-0.476c-3.984,0.852-8.406,2.717-12.74,5.344
					l-3.386,5.682l0.505-3.815c-3.677,2.547-7.199,5.622-10.233,9.07l-1.601,9.991l-0.961-6.831
					c-0.766,1.033-1.485,2.091-2.15,3.172c-2.105,3.425-3.387,7.082-4.092,10.65l2.869,5.192l-3.179-3.39
					c-1.279,8.736,0.736,16.588,2.366,18.663c2.4,3.055,6.278,0.896,6.278,0.896c4.895-3.408,8.076-7.646,10.25-12.2l-10.847,4.331
					l12.391-8.046c1.668-4.638,2.533-9.449,3.277-13.934l-10.535,8.87l11.181-12.745c0.044-0.258,0.089-0.514,0.134-0.768
					c0.387-2.176,1.15-4.025,2.138-5.611l-4.428,0.458l5.617-2.122c4.208-5.177,10.774-7.046,12.219-8.736
					C155.589,193.449,154.432,192.074,153.339,191.21z"/>
				<g>
					<path style="fill:#006B6B;" d="M152.953,294.709c-0.061-0.044-6.17-4.497-13.191-12.179c-4.124-4.512-7.753-9.24-10.787-14.052
						c-3.795-6.02-6.664-12.19-8.528-18.341c-2.129-7.024-2.26-14.212-0.39-21.367c1.494-5.716,4.262-11.422,8.227-16.957
						c6.744-9.416,14.732-15.159,14.812-15.216l0.314,0.441c-0.079,0.057-8.005,5.756-14.695,15.103
						c-6.159,8.604-12.504,22.154-7.75,37.839c4.191,13.828,12.753,25.135,19.197,32.185c6.984,7.641,13.048,12.062,13.109,12.106
						L152.953,294.709z"/>
				</g>
				<path style="fill:#008890;" d="M75.158,247.538l6.868,4.989l-10.4-4.123c-3.972,1.261-8.226,3.602-12.75,7.537l8.232,2.58
					l-10.861-0.139c-0.456,0.45-0.914,0.914-1.375,1.397c-16.46,17.253-11.543,29.04-7.803,29.189
					c1.46,0.058,3.884-1.359,6.605-3.37l3.943-13.2l-1.064,10.955c4.504-3.664,9.181-8.063,11.395-9.714
					c1.814-1.354,4.011-2.703,6.38-3.979l1.586-7.557l0.748,6.35c3.27-1.626,6.726-3.083,9.879-4.212l3.409-6.148l-1.332,5.437
					c3.269-1.063,6.043-1.691,7.68-1.672l-0.002-0.007c0,0,1.584,0.066,3.016-0.403c0.876-0.322,1.815-0.863,2.462-1.778l0.004,0.02
					c0.138-0.207,0.252-0.404,0.349-0.583l-0.001,0c0.001-0.002,0.002-0.004,0.003-0.005c0.095-0.177,0.17-0.332,0.226-0.459
					c0.133-0.41,0.122-0.829,0.102-1.046c-0.232-1.395-1.566-4.598-8.63-7.244C88.729,248.441,82.475,246.278,75.158,247.538z"/>
				<g>
					<path style="fill:#006B6B;" d="M134.762,295.634l-0.526,0.13c-0.014-0.058-1.493-5.919-5.904-13.385
						c-4.068-6.886-11.533-16.587-24-23.697c-13.296-7.583-27.463-2.013-37.007,3.996c-10.375,6.531-17.679,14.971-17.751,15.055
						l-0.411-0.353c0.073-0.085,7.431-8.586,17.873-15.161c6.143-3.868,12.139-6.324,17.821-7.301
						c7.122-1.225,13.764-0.117,19.743,3.293c5.554,3.168,10.595,7.105,14.984,11.704c3.511,3.678,6.614,7.785,9.224,12.207
						C133.255,289.653,134.747,295.575,134.762,295.634z"/>
				</g>
			</g>
		</g>
		<g>
			<g>
				<path style="fill:#008890;" d="M444.5,373.361c3.189-0.493,7.239-1.89,11.61-3.803l-7.103-3.825l9.377,2.797
					c4.567-2.126,9.374-4.72,13.844-7.369l-8.775-3.171l12.861,0.677c1.233-0.775,2.421-1.544,3.551-2.295
					c2.197-1.462,6.719-4.494,10.249-7.986l-6.82-0.99l9.292-1.779c3.62-4.728,4.146-9.747-5.613-12.648
					c-3.469-1.031-7.113-0.828-10.777,0.228l-7.426,12.312l2.227-10.278c-4.079,1.99-8.092,4.823-11.824,7.967l-6.005,13.29
					l1.769-9.49c-3.892,3.701-7.325,7.532-9.998,10.75l-0.786,4.596l-1.038-2.35c-1.752,2.206-3.012,3.943-3.642,4.873
					c-1.958,2.89-2.01,4.676-1.64,5.711c0.172,0.621,0.515,1.434,1.195,2.066C439.501,373.27,440.829,373.928,444.5,373.361z"/>
				<path style="fill:#008890;" d="M442.656,413.723c0.801,0.204,1.509,0.316,2.114,0.243c2.889-0.347,1.387-3.467,1.387-3.467
					c-1.645-2.551-3.708-4.613-5.994-6.263l-7.913-0.555l5.741-0.855c-2.917-1.7-6.073-2.826-9.123-3.505l-6.095,2.704l4.116-3.087
					c-1.996-0.328-3.909-0.471-5.638-0.466l-3.274,2.223l1.358-2.154c-1.816,0.131-3.332,0.438-4.383,0.863
					c-5.432,2.196-2.543,6.01-2.543,6.01c1.729,3.526,5.278,5.81,9.285,6.731l-3.757-5.171l6.36,5.571
					c1.901,0.154,3.838,0.016,5.678-0.428c0.429-0.104,0.851-0.184,1.268-0.246l-3.753-4.435l5.938,4.281
					c3.103,0.01,5.785,0.967,7.942,1.636l-1.34-2.662L442.656,413.723z"/>
				<g>
					<path style="fill:#006B6B;" d="M396.125,418.528c0.01-0.095,0.259-2.361,1.894-5.177c1.505-2.592,4.521-6.143,10.346-8.338
						c3.527-1.329,7.581-1.87,12.049-1.609c3.567,0.209,7.406,0.927,11.41,2.134c6.812,2.054,11.813,4.855,11.862,4.883
						l-0.218,0.387c-0.049-0.028-5.015-2.808-11.781-4.847c-6.23-1.878-15.306-3.494-23.165-0.532
						c-5.691,2.145-8.637,5.603-10.107,8.126c-1.594,2.736-1.845,4.996-1.847,5.019L396.125,418.528z"/>
				</g>
				<path style="fill:#008890;" d="M443.497,349.051l6.295-3.147c0.085-0.132,0.169-0.262,0.254-0.397
					c2.54-4.002,4.143-8.657,5.107-13.288l-6.609,5.313l7.196-8.636c0.623-4.24,0.757-8.318,0.636-11.697l-4.885,3.517l4.687-6.649
					c-0.152-1.628-0.361-2.97-0.584-3.926c-1.271-5.432-9.477-12.482-16.758,4.507c-0.929,2.167-1.765,4.435-2.516,6.75l5.116,8.332
					l-5.934-5.681c-0.967,3.301-1.77,6.659-2.425,9.929l5.585,7.194l-5.9-5.57c-0.786,4.191-1.331,8.195-1.673,11.7l4.395,5.832
					l-4.644-2.903c-0.308,4.305-0.269,7.533,0.022,8.913c0.687,3.264,3.671,2.826,5.159,2.385c1.123-0.463,2.026-1.249,2.026-1.249
					l0.01,0.009c1.82-1.555,5.603-5.233,10.382-12.324L443.497,349.051z"/>
				<g>
					<path style="fill:#006B6B;" d="M391.019,408.777l-0.292-0.335c0.284-0.247,28.556-24.908,40.881-41.341
						c6.422-8.562,10.215-23.151,12.267-33.882c2.226-11.641,2.938-21.378,2.945-21.475l0.443,0.032
						c-0.007,0.097-0.72,9.856-2.95,21.522c-1.31,6.854-2.881,13.018-4.667,18.319c-2.236,6.637-4.821,11.936-7.682,15.751
						C419.611,383.839,391.304,408.53,391.019,408.777z"/>
				</g>
				<path style="fill:#006B6B;" d="M388.607,419.817c0.03-0.048,3.11-4.862,9.03-12.07c5.463-6.65,14.533-16.76,26.725-27.159
					c12.19-10.397,28.333-20.85,39.728-27.787c12.344-7.515,21.932-12.639,22.028-12.69l0.209,0.392
					c-0.095,0.051-9.674,5.17-22.008,12.679c-11.381,6.929-27.501,17.366-39.668,27.744c-12.163,10.375-21.214,20.461-26.664,27.095
					c-5.906,7.189-8.975,11.986-9.005,12.034L388.607,419.817z"/>
				<path style="fill:#008890;" d="M475.543,408.384c0.454-1.033,0.126-2.564-0.089-3.325c-1.162-3.133-3.198-6.503-5.842-9.712
					l-5.013-2.078l3.156-0.04c-2.502-2.684-5.414-5.181-8.571-7.236l-8.3-0.12l5.432-1.586c-0.929-0.5-1.873-0.959-2.829-1.371
					c-3.029-1.304-6.149-1.914-9.129-2.065l-3.876,2.942l2.377-2.981c-7.243-0.007-13.379,2.555-14.872,4.124
					c-2.197,2.309,0.013,5.202,0.013,5.202c3.344,3.571,7.161,5.653,11.114,6.881l-4.796-8.295l7.994,9.11
					c3.962,0.807,7.97,0.941,11.699,1.016l-8.444-7.506l11.666,7.573c0.214,0.006,0.428,0.012,0.639,0.018
					c1.812,0.058,3.403,0.458,4.807,1.073l-0.894-3.54l2.386,4.309c4.699,2.805,6.991,7.914,8.534,8.888
					C473.991,410.474,474.971,409.373,475.543,408.384z"/>
				<g>
					<path style="fill:#006B6B;" d="M391.477,420.286c0.029-0.055,2.923-5.539,8.33-12.146c3.176-3.88,6.586-7.384,10.135-10.416
						c4.439-3.791,9.11-6.849,13.882-9.088c5.451-2.557,11.271-3.512,17.3-2.839c4.817,0.538,9.775,2.112,14.737,4.677
						c8.44,4.363,14.045,10.17,14.101,10.229l-0.321,0.307c-0.055-0.058-5.618-5.819-13.995-10.147
						c-7.712-3.985-19.46-7.536-31.633-1.825c-10.731,5.034-18.899,13.319-23.862,19.383c-5.379,6.572-8.252,12.016-8.28,12.07
						L391.477,420.286z"/>
				</g>
				<path style="fill:#008890;" d="M420.589,351.565l-3.239,6.165l2.12-8.929c-1.492-3.076-3.895-6.253-7.623-9.461l-1.123,6.987
					l-1.169-8.834c-0.419-0.317-0.85-0.634-1.296-0.951c-15.949-11.326-24.938-5.943-24.617-2.889
					c0.125,1.192,1.561,2.992,3.516,4.964l11.181,1.643l-9.019,0.429c3.506,3.224,7.629,6.502,9.231,8.104
					c1.313,1.313,2.667,2.937,3.983,4.709l6.322,0.395l-5.066,1.357c1.706,2.463,3.296,5.096,4.585,7.522l5.393,2.042l-4.571-0.44
					c1.249,2.528,2.086,4.706,2.264,6.037l0.006-0.002c0,0,0.133,1.294,0.684,2.401c0.364,0.673,0.915,1.371,1.734,1.789
					l-0.016,0.005c0.184,0.087,0.358,0.157,0.515,0.214l0-0.001c0.002,0.001,0.003,0.001,0.005,0.002
					c0.155,0.056,0.289,0.099,0.399,0.13c0.349,0.06,0.687,0.001,0.861-0.041c1.105-0.353,3.548-1.814,4.862-7.861
					C421.457,362.688,422.475,357.355,420.589,351.565z"/>
				<g>
					<path style="fill:#006B6B;" d="M388.579,405.628l-0.167-0.411c0.046-0.019,4.628-1.911,10.169-6.373
						c5.11-4.115,12.104-11.321,16.405-22.28c4.587-11.689-1.608-22.532-7.612-29.571c-6.527-7.651-14.24-12.585-14.317-12.633
						l0.238-0.375c0.078,0.049,7.848,5.019,14.417,12.72c3.865,4.531,6.566,9.108,8.03,13.605c1.835,5.637,1.719,11.16-0.343,16.416
						c-1.916,4.883-4.518,9.44-7.732,13.546c-2.572,3.284-5.539,6.289-8.821,8.929C393.256,403.699,388.625,405.609,388.579,405.628
						z"/>
				</g>
			</g>
		</g>
	</g>
	<ellipse style="fill-rule:evenodd;clip-rule:evenodd;fill:#CEDDEF;" cx="250" cy="420.6" rx="192.03" ry="17.033"/>
	<g>
		<g>
			<g>
				<path style="fill:#71A3D1;" d="M51.058,254.532L76.73,407.634c1.202,5.837,6.037,9.945,11.955,10.335
					c0.189,0.018,194.102-4.729,194.102-4.729l-25.324-162.785c-0.405-1.963-2.101-3.323-4.139-3.323l-192.221-2.421
					c-5.339,0-7.996,2.33-9.211,4.817C50.953,251.433,50.861,253.431,51.058,254.532z"/>
				<path style="fill:#93BBE5;" d="M56.242,249.44c-0.008,0.332,0.021,0.673,0.091,1.015l26.014,156.411
					c0.924,4.451,3.187,8.271,6.339,11.104c0.263,0.236,0.534,0.468,0.809,0.691c3.597,2.906,8.214,4.598,13.262,4.598h183.388
					c2.999,0,5.367-2.853,4.769-5.743l-1.556-9.185l-27.173-160.298c-0.405-1.963-2.097-3.322-4.134-3.322H61.103
					C58.462,244.711,56.302,246.931,56.242,249.44z"/>
				<polygon style="fill:#A9CBF7;" points="65.57,253.257 65.597,253.409 90.461,402.875 279.653,402.875 254.291,253.257 				"/>
				<g>
					<polygon style="opacity:0.22;fill:#E5EEF6;" points="209.06,408.329 187.706,408.329 92.294,244.711 113.649,244.711 					"/>
					<polygon style="opacity:0.22;fill:#E5EEF6;" points="174.888,408.329 166.647,408.329 71.236,244.711 79.476,244.711 					"/>
				</g>
			</g>
			<g>
				<g>
					<path style="fill:#71A3D1;" d="M249.027,408.329h154.809c4.106,0,7.465,3.358,7.465,7.464c0,4.106-3.359,7.465-7.465,7.465
						H249.027c-4.106,0-7.465-3.359-7.465-7.465C241.562,411.687,244.92,408.329,249.027,408.329z"/>
				</g>
				<g>
					<path style="fill:#71A3D1;" d="M96.38,408.329h157.765c4.106,0,7.465,3.359,7.465,7.464c0,4.106-3.358,7.465-7.465,7.465H96.38
						c-4.105,0-7.463-3.359-7.463-7.465C88.917,411.688,92.276,408.329,96.38,408.329z"/>
				</g>
				<g>
					<path style="fill:#93BBE5;" d="M111.947,411.328h13.923c1.285,0,2.329,1.043,2.329,2.329v0.918
						c0,1.285-1.043,2.328-2.329,2.328h-13.923c-1.285,0-2.328-1.043-2.328-2.328v-0.918
						C109.619,412.37,110.662,411.328,111.947,411.328z"/>
					<path style="fill:#93BBE5;" d="M137.755,411.328h8.813c1.285,0,2.329,1.043,2.329,2.329v0.918c0,1.285-1.043,2.328-2.329,2.328
						h-8.813c-1.287,0-2.329-1.043-2.329-2.328v-0.918C135.426,412.37,136.469,411.328,137.755,411.328z"/>
				</g>
			</g>
		</g>
		<g>
			<g>
				<path style="fill:#FFFFFF;" d="M178.141,301.646c-0.004,9.731,7.878,17.622,17.61,17.626c9.731,0.004,17.623-7.88,17.627-17.611
					c0.004-9.729-7.881-17.622-17.612-17.626C186.034,284.031,178.145,291.916,178.141,301.646z"/>
				<polygon style="fill:#EEF5FF;" points="125.427,406.442 111.017,332.184 166.526,272.644 163.62,268.56 105.188,330.371 
					119.763,405.644 				"/>
				<polygon style="fill:#85B1E0;" points="160.127,272.255 153.638,279.119 160.487,279.122 162.718,276.728 				"/>
				<polygon style="fill:#85B1E0;" points="108.064,345.225 112.499,339.822 112.223,338.4 106.657,337.959 				"/>
				<path style="fill:#FFFFFF;" d="M141.422,415.787c0,0.399,0.321,0.723,0.722,0.723l9.578,0.004c0.399,0,0.725-0.324,0.726-0.723
					l0.003-7.231c0-0.399-0.326-0.722-0.725-0.722l-9.578-0.004c-0.401,0-0.722,0.323-0.723,0.721L141.422,415.787z"/>
				<path style="fill:#EEF5FF;" d="M122.595,408.941c23.597,0.01,42.723,5.526,42.718,15.393l-85.452-0.038
					C79.866,414.43,98.996,408.931,122.595,408.941z"/>
				<path style="fill:#85B1E0;" d="M122.592,415.093c4.29,0.002,3.436-3.254,1.837-6.138c-0.609-0.008-1.22-0.013-1.835-0.013
					c-5.209-0.002-10.2,0.264-14.816,0.787C110.159,411.307,116.497,415.09,122.592,415.093z"/>
				<g>
					<path style="fill:#D6E3F3;" d="M158.789,277.535c3.598,3.472,9.327,3.368,12.797-0.23c3.472-3.595,3.366-9.325-0.23-12.794
						c-3.597-3.469-9.326-3.367-12.797,0.23C155.09,268.337,155.193,274.065,158.789,277.535z"/>
					<path style="fill:#85B1E0;" d="M162.038,274.17c1.738,1.675,4.506,1.626,6.181-0.114c1.676-1.736,1.626-4.503-0.113-6.178
						c-1.738-1.677-4.505-1.627-6.18,0.111C160.252,269.726,160.302,272.493,162.038,274.17z"/>
				</g>
				<g>
					<path style="fill:#D6E3F3;" d="M99.127,331.242c-0.002,4.998,4.049,9.051,9.046,9.053c4.997,0.002,9.051-4.047,9.053-9.045
						c0.002-4.999-4.048-9.05-9.045-9.052C103.184,322.196,99.129,326.244,99.127,331.242z"/>
					<path style="fill:#85B1E0;" d="M103.806,331.245c-0.001,2.414,1.955,4.371,4.369,4.373c2.412,0.001,4.371-1.955,4.373-4.369
						c0.001-2.414-1.956-4.372-4.369-4.373C105.764,326.874,103.807,328.831,103.806,331.245z"/>
				</g>
				<g>
					<path style="fill:#D6E3F3;" d="M113.548,406.039c-0.002,4.998,4.046,9.052,9.044,9.054c4.998,0.002,9.05-4.048,9.053-9.046
						c0.002-4.997-4.046-9.051-9.044-9.053C117.602,396.991,113.551,401.041,113.548,406.039z"/>
					<path style="fill:#85B1E0;" d="M118.225,406.041c-0.001,2.412,1.955,4.372,4.369,4.373s4.372-1.957,4.373-4.369
						c0.001-2.413-1.955-4.371-4.369-4.373S118.226,403.628,118.225,406.041z"/>
				</g>
				
					<rect x="164.379" y="274.03" transform="matrix(0.6943 -0.7197 0.7197 0.6943 -146.8805 207.9065)" style="fill:#EEF5FF;" width="13.855" height="5.661"/>
				<g>
					<path style="fill:#D6E3F3;" d="M221.492,289.65c-17.599-16.978-33.944-27.99-49.853-12.094
						c-14.626,14.613-3.724,32.409,13.875,49.386L221.492,289.65z"/>
				</g>
				<g>
					<defs>
						<path id="SVGID_1_" d="M158.56,264.741c-3.47,3.597-3.368,9.324,0.229,12.794c3.598,3.472,9.327,3.368,12.797-0.23
							c3.472-3.595,3.366-9.325-0.23-12.794C167.76,261.041,162.031,261.143,158.56,264.741z M108.173,340.296
							c4.997,0.002,9.051-4.047,9.053-9.045c0.002-4.999-4.048-9.05-9.045-9.052c-4.997-0.002-9.052,4.046-9.054,9.044
							C99.125,336.241,103.176,340.294,108.173,340.296z M113.548,406.039c-0.002,4.998,4.046,9.052,9.044,9.054
							c4.998,0.002,9.05-4.048,9.053-9.046c0.002-4.997-4.046-9.051-9.044-9.053C117.602,396.991,113.551,401.041,113.548,406.039z"
							/>
					</defs>
					<use xlink:href="#SVGID_1_"  style="overflow:visible;fill:#EEF5FF;"/>
					<clipPath id="SVGID_00000018197125658870469370000004263832928355559350_">
						<use xlink:href="#SVGID_1_"  style="overflow:visible;"/>
					</clipPath>
				</g>
				<g>
					<path style="fill:#FFFFFF;" d="M165.097,267.878c1.664,0.001,3.009,1.347,3.008,3.01c-0.001,1.664-1.346,3.009-3.011,3.009
						c-1.662-0.001-3.007-1.348-3.006-3.011C162.089,269.222,163.436,267.877,165.097,267.878z"/>
					<path style="fill:#FFFFFF;" d="M108.178,328.178c1.662,0.001,3.008,1.348,3.007,3.011c-0.001,1.664-1.348,3.009-3.01,3.008
						c-1.664-0.001-3.01-1.347-3.009-3.011C105.167,329.523,106.515,328.177,108.178,328.178z"/>
					<path style="fill:#FFFFFF;" d="M122.597,403.033c1.661,0.001,3.009,1.348,3.008,3.011c-0.001,1.663-1.35,3.01-3.011,3.009
						c-1.663-0.001-3.007-1.349-3.006-3.012C119.589,404.378,120.935,403.033,122.597,403.033z"/>
				</g>
			</g>
		</g>
	</g>
	<g>
		<g>
			<g>
				<path style="fill:#89532E;" d="M220.541,275.219c0,0,1.646,13.012,8.435,43.295c0,0,1.532,4.191,2.289,5.427
					c0,0,2.104,1.13,13.438,4.886c9.321,3.088,9.897-2.204-6.929-10.021l0.921-45.007
					C238.693,273.798,228.015,264.559,220.541,275.219z"/>
				<path style="fill:#357DED;" d="M229.113,318.491l0.583,6.121l19.115,7.021c0,0,5.91,1.089,3.505-3.211
					c-2.425-4.334-11.272-9.136-14.543-9.618c0,0,8.112,4.526,9.844,7.705C247.616,326.509,238.936,322.202,229.113,318.491z"/>
				<path style="fill:#89532E;" d="M242.622,278.494c0,0,5.463,11.924,20.998,38.79c0,0,2.716,3.541,3.807,4.493
					c0,0,2.345,0.449,14.284,0.643c9.818,0.159,8.785-5.064-9.61-7.49l-12.584-43.222
					C259.518,271.708,246.565,266.086,242.622,278.494z"/>
				<path style="fill:#357DED;" d="M263.744,317.221l2.387,5.666l20.34,0.983c0,0,5.965-0.729,2.384-4.112
					c-3.61-3.411-13.488-5.347-16.754-4.828c0,0,9.094,1.892,11.697,4.408C283.799,319.337,274.228,317.823,263.744,317.221z"/>
				<path style="fill:#296ED3;" d="M158.901,226.904c-0.324,13.875,10.369,16.574,26.062,18.674
					c17.936,2.401,39.403-2.45,39.403-2.45c4.487,12.053,17.358,38.048,25.556,51.125l14.376-6.38c0,0-16-61.593-21.561-66.073
					c-5.493-4.425-37.614-8.273-62.375-8.782C180.361,213.019,159.27,211.074,158.901,226.904z"/>
				<path style="fill:#357DED;" d="M140.004,207.26c0,0-2.914,12.552,0.447,23.672c4.015,13.286,19.797,14.695,35.591,15.804
					c18.051,1.268,37.513-3.999,37.513-3.999c0.468,10.408,7.942,39.001,10.805,54.167l14.081-1.121c0,0,2.671-72.649-5.783-78.771
					c-5.713-4.137-31.039-4.676-55.783-3.627l-5.931-9.593C150.951,205.497,140.004,207.26,140.004,207.26z"/>
				<path style="fill:#296ED3;" d="M238.546,278.056c0,0,0.358,7.602-0.105,17.726l-10.65,0.848c0,0-0.091-2.161,3.78-5.176
					c2.069-1.611,2.403-3.204,3.148-7.579C235.463,279.5,236.85,277.917,238.546,278.056z"/>
				<path style="fill:#296ED3;" d="M176.874,213.385c0,0-13.21,5.708-21.527,3.033c-3.504-1.127-10.506-9.689-10.506-9.689
					s22.645-2.768,26.102-2.937L176.874,213.385z"/>
				<path style="fill:#296ED3;" d="M213.568,242.799c0,0,0.036-3.842-0.542-6.481c-0.578-2.638-7.638-0.007-14.266,4.581
					c-6.627,4.587-7.345,3.959-9.356,5.754C189.404,246.654,207.982,244.866,213.568,242.799z"/>
			</g>
		</g>
		<g>
			<path style="fill:#20120C;" d="M142.25,148.447c-0.136-0.663-0.179-1.36-0.114-2.077c0.307-3.401,3.06-6.131,6.463-6.414
				c0.491-0.041,0.973-0.031,1.44,0.025c0.948,0.113,1.893-0.311,2.376-1.134c1.231-2.1,3.511-3.511,6.121-3.511
				c2.846,0,5.299,1.676,6.428,4.095c0.401,0.858,1.383,1.257,2.263,0.905c0.908-0.363,1.908-0.544,2.955-0.497
				c3.697,0.166,6.68,3.221,6.763,6.921c0.037,1.629-0.477,3.137-1.367,4.351c-0.544,0.742-0.693,1.706-0.402,2.578
				c0.276,0.826,0.425,1.709,0.425,2.627c0,4.587-3.719,8.306-8.306,8.306c-0.007,0-0.013,0-0.02,0
				c-1.115-0.003-2.138,0.564-2.729,1.51c-1.467,2.346-4.073,3.907-7.044,3.907c-2.88,0-5.418-1.466-6.908-3.692
				c-0.629-0.94-1.69-1.519-2.822-1.512c-0.19,0.001-0.382-0.004-0.574-0.016c-4.288-0.269-7.704-3.839-7.782-8.135
				c-0.04-2.194,0.772-4.198,2.126-5.704C142.165,150.287,142.436,149.356,142.25,148.447z"/>
			<g>
				<path style="fill:#9C6639;" d="M166.643,152.059c0,0,0.454,6.917-1.12,9.538c-1.574,2.621-3.532,2.965-3.532,2.965
					s0.01,3.722,0.325,3.967c0.289,0.224,0.724,0.269,0.724,0.269s-0.704,6.726-4.614,6.235c-6.533-0.82-7.281-6.587-7.281-6.587
					s1.874-0.599,2.113-1.083c0.239-0.484,0.457-7.087,0.62-8.008c-0.488,0.206-3.181-0.649-3.042-2.569
					c0.527-2.223,2.694-1.271,3.473-0.315c0,0,0.461-0.326,0.687-1.791c0.226-1.465,1.084-1.571,1.973-2.14
					c0.889-0.569,1.17-1.354,1.716-1.803c1.073-1.322,3.136-0.367,3.136-0.367c1.236-0.368,1.925-0.905,3.302-0.421
					C166.027,150.27,166.425,150.378,166.643,152.059z"/>
			</g>
			<g>
				<path style="fill:#89532E;" d="M161.99,164.563c0,0-4.94,2.188-7.717-3.696c0,0,1.127,7.083,7.77,5.76L161.99,164.563z"/>
			</g>
			<g>
				<path style="fill:#89532E;" d="M153.71,158.158c0.062-0.008,0.119-0.047,0.147-0.107c0.045-0.095,0.004-0.208-0.091-0.252
					l-1.746-0.823c-0.095-0.045-0.208-0.004-0.252,0.091c-0.045,0.095-0.004,0.208,0.091,0.252l1.746,0.823
					C153.639,158.158,153.675,158.163,153.71,158.158z"/>
			</g>
			<g>
				<path style="fill:#89532E;" d="M162.57,159.037c0.389-0.05,0.771-0.202,0.827-0.593c0.093-0.652-0.825-2.786-0.93-3.027
					c-0.042-0.096-0.154-0.14-0.25-0.098c-0.096,0.042-0.14,0.153-0.098,0.249c0.38,0.873,0.961,2.411,0.903,2.822
					c-0.046,0.321-0.884,0.313-1.26,0.261c-0.103-0.014-0.199,0.058-0.214,0.161c-0.014,0.104,0.058,0.199,0.161,0.214
					C161.79,159.037,162.183,159.087,162.57,159.037z"/>
			</g>
			<g>
				<path style="fill:#363435;" d="M164.939,155.788c0.012,0.324-0.217,0.595-0.511,0.605c-0.294,0.01-0.542-0.244-0.553-0.568
					c-0.012-0.324,0.217-0.595,0.511-0.605S164.928,155.464,164.939,155.788z"/>
			</g>
			<g>
				<path style="fill:#363435;" d="M160.505,153.835c0.052-0.007,0.1-0.034,0.132-0.081c0.059-0.086,0.037-0.204-0.049-0.264
					c-0.012-0.009-1.266-0.849-2.349,0.211c-0.075,0.073-0.076,0.193-0.003,0.268c0.073,0.075,0.193,0.076,0.268,0.003
					c0.863-0.845,1.828-0.198,1.869-0.17C160.413,153.831,160.46,153.841,160.505,153.835z"/>
			</g>
			<g>
				<path style="fill:#363435;" d="M165.308,153.611c0.043-0.006,0.084-0.026,0.115-0.06c0.071-0.077,0.066-0.197-0.011-0.268
					c-0.624-0.573-1.448-0.229-1.797,0.033c-0.084,0.063-0.101,0.182-0.038,0.265c0.063,0.084,0.182,0.1,0.265,0.038
					c0.034-0.025,0.767-0.558,1.313-0.057C165.199,153.602,165.255,153.618,165.308,153.611z"/>
			</g>
			<g>
				
					<ellipse transform="matrix(0.9994 -0.0356 0.0356 0.9994 -5.4577 5.7933)" style="fill:#363435;" cx="159.937" cy="156.139" rx="0.549" ry="0.605"/>
			</g>
			<g>
				<path style="fill:#89532E;" d="M162.381,160.923c0.004-0.001,0.007-0.001,0.009-0.001c0.104-0.014,0.176-0.11,0.162-0.213
					c-0.014-0.103-0.109-0.176-0.212-0.162c-0.001,0-0.001,0-0.002,0c-0.059,0.008-2.303,0.286-3.016-0.859
					c-0.055-0.089-0.172-0.116-0.261-0.061c-0.089,0.055-0.116,0.172-0.061,0.261C159.832,161.223,162.19,160.948,162.381,160.923z"
					/>
			</g>
		</g>
		<g id="Baju_4_">
			<path style="fill:#9C6639;" d="M114.841,230.429c-3.184,1.285-7.448,5.08-11.916,9.342c-0.318,0.304-0.342,0.805-0.055,1.136
				c0.067,0.075,0.142,0.136,0.228,0.183c0.252,0.139,0.57,0.142,0.829-0.019l4.226-2.592l-6.46,6.914
				c-0.305,0.327-0.342,0.821-0.088,1.189c0.088,0.125,0.199,0.225,0.324,0.294c0.331,0.183,0.756,0.159,1.068-0.104l4.56-3.811
				l-5.14,5.665c-0.329,0.365-0.288,0.931,0.096,1.239c0.04,0.032,0.081,0.061,0.123,0.084c0.314,0.173,0.706,0.134,0.98-0.108
				l5.992-5.296l-2.966,5.913c-0.286,0.571-0.058,1.263,0.513,1.549c0.258,0.13,0.545,0.154,0.809,0.086
				c0.262-0.069,0.502-0.231,0.665-0.474l6.494-9.62l-0.203,2.538l-1.726,2.384c-0.387,0.429-0.557,1.009-0.466,1.578
				c0.037,0.222,0.169,0.388,0.341,0.482c0.247,0.137,0.576,0.12,0.807-0.107l3.425-3.37c0.187-0.181,0.316-0.417,0.375-0.672
				c1.519-4.301,2.185-8.429,2.26-11.354l0.098-0.108c-1.654-1.212-3.308-2.424-4.962-3.635
				C114.993,229.967,114.917,230.197,114.841,230.429z"/>
			<path style="fill:#9C6639;" d="M214.577,195.499c3.384-0.581,8.355-3.388,13.624-6.607c0.375-0.23,0.505-0.714,0.295-1.099
				c-0.05-0.088-0.11-0.163-0.184-0.228c-0.217-0.19-0.527-0.26-0.814-0.157l-4.679,1.638l7.778-5.389
				c0.368-0.255,0.508-0.73,0.337-1.143c-0.059-0.141-0.147-0.262-0.254-0.356c-0.285-0.249-0.706-0.315-1.066-0.125l-5.264,2.759
				l6.223-4.448c0.399-0.287,0.478-0.849,0.169-1.231c-0.032-0.039-0.067-0.077-0.102-0.108c-0.27-0.236-0.661-0.281-0.981-0.102
				l-6.977,3.907l4.151-5.151c0.401-0.497,0.324-1.222-0.173-1.623c-0.224-0.181-0.5-0.266-0.773-0.255
				c-0.271,0.012-0.539,0.12-0.75,0.322l-8.384,8.026l0.736-2.438l2.192-1.964c0.469-0.337,0.759-0.868,0.789-1.443
				c0.011-0.225-0.083-0.415-0.231-0.544c-0.213-0.186-0.538-0.239-0.812-0.066l-4.061,2.568c-0.221,0.138-0.398,0.34-0.508,0.578
				c-2.396,3.882-3.92,7.775-4.613,10.618l-0.118,0.085c1.36,1.535,2.72,3.069,4.08,4.604
				C214.33,195.918,214.454,195.709,214.577,195.499z"/>
			<g>
				<g>
					<path style="fill:#F89D13;" d="M159.155,173.024l5.158-5.158c0.087-0.087,0.198-0.146,0.318-0.17l0.473-0.095
						c0.405-0.081,0.821,0.082,1.063,0.417l2.42,3.347c0.183,0.253,0.475,0.407,0.787,0.414l3.761,0.09
						c0.848,0.02,1.669,0.305,2.347,0.815c4.282,3.219,20.324,15.432,22.499,19.324l5.159-3.704l-1.068-1.314
						c-0.369-0.454-0.331-1.115,0.089-1.523l3.888-3.788c0.304-0.296,0.78-0.319,1.111-0.055l15.775,12.596
						c0.399,0.319,0.482,0.893,0.189,1.312l-3.524,5.035c-0.338,0.483-0.974,0.653-1.508,0.404l-1.061-0.495
						c0,0-8.07,13.89-11.112,16.139c0,0-6.482,6.747-13.758,0l-16.536-15.742l-3.44,7.011h-32.411l-1.191-5.159l-15.5,36.123
						c-0.28,0.652-1.037,0.952-1.687,0.668l-18.306-7.98c-0.626-0.273-0.895-1.014-0.59-1.625l2.168-4.336
						c0.249-0.497,0.846-0.71,1.353-0.482l1.738,0.782l15.792-40.428c1.052-2.692,2.555-5.193,4.496-7.336
						c1.848-2.041,4.352-4.076,7.451-4.939c0.204-0.057,0.407-0.116,0.606-0.186l10.284-3.599l2.939-2.261
						c0.299-0.23,0.711-0.243,1.024-0.032L159.155,173.024z"/>
				</g>
			</g>
			<g>
				<g>
					<g>
						<path style="fill:#D17E11;" d="M167.982,171.714c-0.374,0.928-0.749,1.857-1.123,2.785c-0.592,1.468-1.183,2.935-1.775,4.403
							c-0.136,0.338-0.273,0.676-0.409,1.015c0.25-0.066,0.5-0.132,0.751-0.198c-0.672-0.732-1.344-1.464-2.017-2.196
							c-1.067-1.162-2.134-2.324-3.201-3.485c-0.245-0.267-0.49-0.534-0.736-0.801c-0.163-0.177-0.471-0.168-0.635,0
							c-0.673,0.688-1.346,1.376-2.018,2.063c-1.067,1.091-2.134,2.182-3.201,3.272c-0.244,0.25-0.489,0.5-0.733,0.75
							c0.235,0.03,0.47,0.061,0.705,0.091c-0.202-0.342-0.403-0.684-0.605-1.026c-0.484-0.821-0.969-1.643-1.453-2.464
							c-0.586-0.994-1.172-1.987-1.758-2.981c-0.507-0.859-1.013-1.718-1.52-2.577c-0.246-0.417-0.479-0.844-0.739-1.253
							c-0.004-0.006-0.007-0.012-0.01-0.018c-0.123-0.209-0.405-0.284-0.614-0.161c-0.209,0.122-0.285,0.405-0.161,0.614
							c0.202,0.342,0.403,0.684,0.605,1.026c0.484,0.821,0.969,1.643,1.453,2.464c0.586,0.994,1.172,1.987,1.758,2.981
							c0.507,0.859,1.013,1.718,1.52,2.577c0.246,0.417,0.479,0.844,0.739,1.253c0.004,0.006,0.007,0.012,0.01,0.018
							c0.146,0.247,0.502,0.299,0.705,0.091c0.673-0.688,1.346-1.376,2.018-2.063c1.067-1.091,2.134-2.182,3.201-3.272
							c0.244-0.25,0.489-0.5,0.733-0.75c-0.212,0-0.423,0-0.635,0c0.672,0.732,1.344,1.464,2.017,2.196
							c1.067,1.162,2.134,2.324,3.201,3.485c0.245,0.267,0.49,0.534,0.736,0.801c0.107,0.117,0.288,0.157,0.437,0.115
							c0.164-0.045,0.253-0.163,0.314-0.314c0.374-0.928,0.749-1.857,1.123-2.785c0.592-1.468,1.183-2.935,1.775-4.403
							c0.136-0.338,0.273-0.676,0.409-1.015c0.091-0.225-0.099-0.493-0.314-0.552C168.278,171.33,168.073,171.488,167.982,171.714
							L167.982,171.714z"/>
					</g>
				</g>
			</g>
			<g>
				<g>
					<g>
						<path style="fill:#D17E11;" d="M158.917,173.943c0.034,0.077,0.067,0.155,0.1,0.233c0.018,0.041,0.035,0.083,0.053,0.124
							c0.01,0.024,0.02,0.048,0.03,0.072c-0.073-0.168-0.023-0.055-0.007-0.016c0.055,0.13,0.109,0.26,0.163,0.391
							c0.323,0.782,0.635,1.568,0.936,2.358c0.918,2.406,1.752,4.849,2.434,7.333c0.367,1.335,0.69,2.683,0.931,4.047
							c0.057,0.322,0.109,0.645,0.155,0.968c0.006,0.04,0.011,0.08,0.017,0.119c0.002,0.014,0.02,0.146,0.005,0.039
							c0.01,0.079,0.021,0.157,0.03,0.236c0.019,0.155,0.037,0.311,0.053,0.466c0.062,0.601,0.1,1.204,0.1,1.808
							c-0.001,1.511-0.267,2.956-0.564,4.438c-0.343,1.71-0.781,3.401-1.276,5.074c-0.603,2.037-1.28,4.06-2.064,6.035
							c-0.012,0.031-0.025,0.062-0.037,0.093c-0.091,0.225,0.099,0.493,0.314,0.552c0.257,0.071,0.461-0.088,0.552-0.314
							c0.675-1.668,1.253-3.382,1.788-5.099c0.506-1.624,0.961-3.265,1.336-4.924c0.376-1.663,0.713-3.368,0.823-5.073
							c0.08-1.233-0.038-2.472-0.213-3.691c-0.196-1.365-0.489-2.715-0.83-4.05c-0.657-2.569-1.493-5.092-2.418-7.575
							c-0.332-0.891-0.676-1.777-1.035-2.658c-0.188-0.463-0.37-0.931-0.579-1.385c-0.009-0.019-0.016-0.038-0.025-0.057
							c-0.097-0.222-0.422-0.273-0.614-0.161C158.849,173.463,158.82,173.72,158.917,173.943L158.917,173.943z"/>
					</g>
				</g>
			</g>
			<g>
				<g>
					<g>
						<path style="fill:#D17E11;" d="M173.521,182.337c0.06,0.06,0.117,0.124,0.173,0.188c0.069,0.078,0.136,0.157,0.202,0.238
							c0.04,0.049,0.08,0.099,0.12,0.149c0.017,0.022,0.093,0.119,0.034,0.043c-0.06-0.078,0.021,0.027,0.037,0.049
							c0.521,0.69,0.971,1.433,1.358,2.206c0.126,0.252,0.245,0.507,0.356,0.765c0.013,0.031,0.026,0.062,0.04,0.093
							c0.024,0.055-0.034-0.082-0.011-0.027c0.006,0.014,0.011,0.027,0.017,0.041c0.03,0.073,0.06,0.147,0.09,0.22
							c0.058,0.147,0.115,0.294,0.169,0.443c0.232,0.636,0.423,1.287,0.572,1.948c0.082,0.362,0.152,0.727,0.209,1.094
							c0.015,0.094,0.028,0.187,0.042,0.281c0.003,0.019,0.005,0.038,0.008,0.057c-0.013-0.094-0.003-0.025-0.001-0.005
							c0.007,0.058,0.015,0.115,0.021,0.173c0.023,0.195,0.043,0.391,0.059,0.587c0.072,0.865,0.078,1.736,0.023,2.602
							c-0.014,0.227-0.033,0.454-0.056,0.681c-0.011,0.108-0.023,0.216-0.035,0.324c-0.007,0.062-0.015,0.125-0.023,0.187
							c-0.004,0.031-0.008,0.063-0.012,0.094c0.007-0.049,0,0.001-0.003,0.022c-0.071,0.504-0.16,1.005-0.267,1.503
							c-0.233,1.079-0.549,2.138-0.932,3.173c-0.102,0.276-0.21,0.55-0.321,0.823c-0.092,0.225,0.1,0.494,0.314,0.552
							c0.257,0.071,0.46-0.088,0.552-0.314c0.831-2.037,1.406-4.173,1.625-6.364c0.171-1.715,0.102-3.45-0.221-5.144
							c-0.253-1.333-0.676-2.628-1.247-3.858c-0.393-0.846-0.86-1.66-1.408-2.416c-0.256-0.352-0.522-0.726-0.838-1.03
							c-0.004-0.004-0.008-0.008-0.012-0.012C173.748,181.293,173.112,181.928,173.521,182.337L173.521,182.337z"/>
					</g>
				</g>
			</g>
			<g>
				<g>
					<g>
						<path style="fill:#D17E11;" d="M197.334,191.889c-0.84,0.777-1.666,1.57-2.486,2.369c-1.547,1.508-3.077,3.041-4.504,4.663
							c-0.645,0.733-1.295,1.487-1.812,2.319c-0.128,0.206-0.044,0.494,0.161,0.614c0.215,0.126,0.486,0.045,0.614-0.161
							c0.092-0.148,0.19-0.293,0.291-0.436c0.054-0.076,0.108-0.151,0.163-0.225c0.03-0.041,0.061-0.081,0.091-0.122
							c0.011-0.015,0.023-0.03,0.034-0.045c0.076-0.101-0.032,0.04,0.018-0.023c0.281-0.358,0.571-0.708,0.869-1.052
							c0.701-0.809,1.434-1.591,2.178-2.361c1.345-1.392,2.73-2.747,4.135-4.078c0.292-0.277,0.586-0.554,0.881-0.827
							c0.178-0.165,0.167-0.468,0-0.635C197.791,191.711,197.512,191.723,197.334,191.889L197.334,191.889z"/>
					</g>
				</g>
			</g>
			<g>
				<g>
					<g>
						<path style="fill:#D17E11;" d="M202.757,188.555c0.506,0.409,1.013,0.819,1.519,1.228c1.211,0.979,2.422,1.959,3.634,2.938
							c1.464,1.184,2.929,2.368,4.393,3.552c1.266,1.023,2.531,2.047,3.797,3.07c0.615,0.497,1.228,0.998,1.845,1.492
							c0.009,0.007,0.017,0.014,0.026,0.021c0.188,0.152,0.451,0.184,0.635,0c0.158-0.158,0.19-0.482,0-0.635
							c-0.506-0.409-1.013-0.819-1.519-1.228c-1.211-0.979-2.422-1.959-3.634-2.938c-1.464-1.184-2.929-2.368-4.393-3.552
							c-1.266-1.023-2.531-2.047-3.797-3.07c-0.615-0.497-1.228-0.998-1.845-1.492c-0.009-0.007-0.017-0.014-0.026-0.021
							c-0.188-0.152-0.451-0.184-0.635,0C202.6,188.077,202.568,188.402,202.757,188.555L202.757,188.555z"/>
					</g>
				</g>
			</g>
			<g>
				<g>
					<g>
						<path style="fill:#D17E11;" d="M108.104,226.241c0.562,0.237,1.124,0.474,1.686,0.711c1.349,0.569,2.699,1.139,4.048,1.708
							c1.632,0.688,3.264,1.377,4.896,2.065c1.406,0.593,2.812,1.186,4.219,1.78c0.465,0.196,0.93,0.392,1.395,0.588
							c0.219,0.092,0.436,0.197,0.66,0.278c0.01,0.004,0.02,0.008,0.03,0.013c0.224,0.094,0.494-0.101,0.552-0.314
							c0.071-0.259-0.089-0.458-0.314-0.552c-0.562-0.237-1.124-0.474-1.686-0.711c-1.349-0.569-2.699-1.139-4.048-1.708
							c-1.632-0.689-3.264-1.377-4.896-2.065c-1.406-0.593-2.812-1.186-4.219-1.78c-0.465-0.196-0.93-0.392-1.395-0.588
							c-0.219-0.092-0.436-0.197-0.66-0.278c-0.01-0.004-0.02-0.008-0.03-0.013c-0.224-0.094-0.494,0.101-0.552,0.314
							C107.719,225.948,107.88,226.146,108.104,226.241L108.104,226.241z"/>
					</g>
				</g>
			</g>
		</g>
	</g>
	<g>
		<polygon style="fill:#F2725F;" points="314.333,296.601 289.554,315.449 297.581,322.029 323.897,305.793 		"/>
		<g>
			<path style="fill:#93BBE5;" d="M421.693,401.703c-13.022,19.89-36.427,30.59-91.713,20.522
				c-55.284-10.061-45.715-55.464-26.578-61.312c19.138-5.848,49.495-37.82,53.156-42.356c0,0,4.37-6.536,10.941-10.861
				c0.821-0.541,1.675-1.046,2.568-1.503c3.078-1.587,6.523-2.541,10.151-2.148c0.654,0.07,1.3,0.19,1.923,0.358
				c0.518,0.14,1.02,0.308,1.515,0.505c10.781,4.297,16.53,22.235,19.424,29.171C406.27,341.726,434.715,381.806,421.693,401.703z"
				/>
			<path style="fill:#A9CBF7;" d="M383.057,368.853c-0.064,0.008-0.119,0.014-0.184,0.014c-0.358,0-0.685-0.218-0.773-0.547
				c-4.761-18.142-0.215-61.867-0.016-63.72c0.009-0.07,0.024-0.133,0.057-0.196c0.518,0.14,1.02,0.308,1.515,0.505
				c-0.319,3.11-4.554,45.739,0,63.088C383.751,368.383,383.487,368.763,383.057,368.853z"/>
			<path style="fill:#A9CBF7;" d="M370.067,306.193c-2.926,5.505-28.268,52.923-33.882,59.067c-0.16,0.175-0.391,0.259-0.622,0.259
				c-0.175,0-0.351-0.049-0.502-0.155c-0.343-0.239-0.391-0.68-0.119-0.982c4.992-5.456,26.872-46.056,32.558-56.686
				C368.32,307.155,369.174,306.649,370.067,306.193z"/>
			<path style="fill:#A9CBF7;" d="M380.396,424.446c-0.233-0.148-25.325-17.267-28.66-26.076
				c-3.268-8.632,16.378-27.664,16.578-27.855c0.297-0.287,0.274-0.729-0.05-0.992c-0.324-0.262-0.83-0.241-1.127,0.044
				c-0.775,0.746-17.64,17.096-17.327,26.989c-10.323-0.596-33.196-2.246-45.34-5.627c4.685-12.871,6.608-25.851,6.632-26.021
				c0.055-0.385-0.253-0.736-0.69-0.785c-0.433-0.047-0.836,0.223-0.892,0.607c-0.031,0.22-3.269,22.128-11.62,37.062
				c-0.195,0.347-0.033,0.768,0.363,0.939c0.113,0.049,0.233,0.073,0.351,0.073c0.294,0,0.577-0.145,0.717-0.392
				c1.769-3.166,3.309-6.637,4.642-10.15c12.426,3.462,35.753,5.123,46.002,5.71c0.065,0.288,0.145,0.57,0.248,0.841
				c3.496,9.234,28.272,26.152,29.235,26.768c0.141,0.091,0.306,0.135,0.468,0.135c0.246,0,0.49-0.099,0.646-0.289
				C380.831,425.113,380.752,424.675,380.396,424.446z"/>
			<path style="fill:#A9CBF7;" d="M342.675,338.974c0.572-0.737,18.083-20.492,36.585-4.893c4.836,9.983,15.77,22.269,18.083,23.848
				c2.312,1.581-5.256,18.079-54.668,9.654c-16.61-2.764-41-0.176-31.328-7.196C321.019,353.366,338.049,344.941,342.675,338.974z"
				/>
		</g>
		<g>
			<path style="fill:#F89D13;" d="M287.249,344.507c13.278-5.184,26.643-8.083,42.815-8.653
				c17.986-0.635,42.52,13.345,22.719,23.975c-9.957,5.346-18.095,10.289-56.229,8.225
				C264.295,366.308,267.03,352.404,287.249,344.507z"/>
			<path style="fill:#F89D13;" d="M365.197,342.689c2.74,0.479,8.359,0.646,12.121,3.985c2.638,2.341,4.021,23.512-11.476,24.999
				c-16.652,1.597-25.727-2.652-26.716-6.121C338.135,362.085,339.288,338.151,365.197,342.689z"/>
			<path style="fill:#D17E11;" d="M365.842,371.672c7.345-0.704,10.894-5.831,12.319-11.278c-3.262,7.137-16.124,8.139-16.124,8.139
				s-5.514-2.32-6.845-2.757c-1.333-0.436-1.083,1.242-2.209,4.059c-0.282,0.705-0.377,1.289-0.338,1.841
				C356.318,372.099,360.718,372.164,365.842,371.672z"/>
			<g>
				<path style="fill:#20120C;" d="M244.862,418.901c9.213-0.927,13.126-10.506,13.126-10.506l11.065,4.74
					c0,0,0.943,3.892-0.192,14.653c0,0-1.598,2.021-8.169,1.496c-6.57-0.524-20.8,1.895-28.942-2.804l0.46-3.734
					C232.21,422.746,231.896,420.206,244.862,418.901z"/>
			</g>
			<path style="fill:#F89D13;" d="M290.119,368.582c0.695,6.107-16.082,49.94-16.082,49.94c-10.987-1.418-20.257-9.07-20.257-9.07
				c2.389-3.855,16.443-52.863,20.156-56.281C282.181,345.58,289.483,362.995,290.119,368.582z"/>
			<path style="fill:#D17E11;" d="M276.492,403.012c-4.806,10.727-14.532,9.778-22.666,6.477c0.473,0.385,9.516,7.653,20.212,9.033
				c0,0,16.112-43.519,16.91-49.612c0.214-1.633,5.852-0.597,4.577-3.46l-8.716-4.737
				C286.807,360.713,285.617,382.642,276.492,403.012z"/>
			<g>
				<path style="fill:#20120C;" d="M328.088,431.813c0.733-3.508,1.271-8.316,1.271-8.316c2.984-4.953,15.015,0.47,15.015,0.47
					c-2.299,4.7,3.228,10.558-0.44,12.727c-3.668,2.17-1.272,4.761-6.261,5.665c-8.577,1.554-13.644-0.543-13.644-0.543
					s-0.928-0.949-0.49-3.789C323.919,435.574,327.355,435.321,328.088,431.813z"/>
			</g>
			<path style="fill:#F89D13;" d="M356.449,351.335c3.326,2.642,11.538,6.347,11.538,6.347s-6.844,4.51-6.844,19.475
				c0,14.966-16.432,51.546-16.432,51.546s-0.684-1.564-7.336-3.032c-6.652-1.467-9.683-1.075-9.683-1.075
				c1.858-14.085,10.752-44.554,11.126-60.889C339.192,347.374,353.123,348.695,356.449,351.335z"/>
			<path style="fill:#D17E11;" d="M325.515,368.049c-1.095,0.091-2.241,0.167-3.438,0.245c-0.322,0.013-0.644,0.038-0.966,0.05
				c-1.031,0.052-2.112,0.091-3.219,0.117c-1.12,0.038-2.267,0.052-3.464,0.064c-5.111,0.039-10.996-0.103-17.872-0.477
				c-0.167-0.013-0.322-0.013-0.477-0.026c-2.214-0.128-4.261-0.322-6.141-0.553c0.077,0.412,0.141,0.773,0.18,1.108
				c0.025,0.231,0.025,0.541-0.013,0.914c-0.258-0.747-0.528-1.442-0.798-2.099c-1.789-4.366-3.592-6.85-1.687-6.671
				c0.734,0.052,2.022,0.516,4.069,1.405C300.123,365.795,325.155,368.022,325.515,368.049z"/>
		</g>
		<g>
			<path style="fill:#297EEC;" d="M380.892,294.623c-2.335,16.648-4.67,33.297-7.006,49.945c-7.476-1.047-14.983-2.081-22.521-3.103
				c-7.19-0.974-14.356-1.929-21.498-2.865l-0.085-33.64l-0.023-11.752l18.128-10.68l4.38-2.584l10.792,0.031l4.309,3.54
				L380.892,294.623z"/>
			<path style="fill:#297EEC;" d="M346.334,280.998l-15.55,2.768c-0.772,0.136-1.506,0.448-2.135,0.923l-17.217,12.824l7.607,15.112
				l10.742-7.664l2.309-1.644l17.082-19.781l3.094-3.591L346.334,280.998z"/>
			<path style="fill:#FE7D6B;" d="M410.138,335.298c-0.274,3.599-2.756,6.659-6.223,7.677c-0.77,0.233-1.551,0.347-2.332,0.351
				c-0.316,0.015-0.629-0.003-0.941-0.032c-2.356-0.215-4.582-1.384-6.086-3.333l-13.858-21.705l15.908-8.941l12.233,18.942
				c0.979,1.511,1.457,3.29,1.391,5.085l-0.072,1.621C410.159,335.072,410.148,335.19,410.138,335.298z"/>
			<path style="fill:#297EEC;" d="M383.793,289.463c-0.56-0.876-1.377-1.558-2.339-1.949l-12.424-5.094l-5.972-2.444l1.572,5.004
				l5.926,17.379l10.145,15.896l15.907-8.941L383.793,289.463z"/>
			<path style="fill:#FE7D6B;" d="M408.219,329.033l-12.043-21.577c0,0,2.628-9.479,1.378-10.136
				c-2.428-1.275-4.722,7.163-4.722,7.163s-7.144-2.46-8.318-1.483c-1.174,0.978-4.482,7.999-2.584,9.98
				c1.898,1.982,6.332,4.421,6.332,4.421l8.934,20.48L408.219,329.033z"/>
			<g>
				<path style="fill:#DC6A61;" d="M396.947,337.989l-8.898-20.397c-0.696-0.39-5.358-3.036-6.343-4.458l0.443-0.307
					c0.972,1.403,6.189,4.309,6.242,4.338l0.081,0.044l0.036,0.083l8.934,20.48L396.947,337.989z"/>
				
					<rect x="385.007" y="303.659" transform="matrix(0.4012 -0.916 0.916 0.4012 -49.5911 536.1577)" style="fill:#DC6A61;" width="0.541" height="4.698"/>
				
					<rect x="383.966" y="306.608" transform="matrix(0.5169 -0.8561 0.8561 0.5169 -79.0918 478.3247)" style="fill:#DC6A61;" width="0.541" height="5.255"/>
			</g>
			<path style="opacity:0.3;fill:#DC6A61;" d="M410.138,335.298c-0.274,3.599-2.756,6.659-6.223,7.677
				c-0.77,0.233-1.551,0.347-2.332,0.351c-0.071-0.527-0.088-1.06-0.038-1.609c0.363-3.97,3.862-6.884,7.832-6.521
				C409.635,335.219,409.893,335.254,410.138,335.298z"/>
		</g>
		<g>
			<g>
				<g>
					<g>
						<path style="fill:#FE7D6B;" d="M360.386,270.425l-0.377,6.673l-0.111,1.94l-0.336,5.938c-0.12,2.134-1.948,3.765-4.085,3.642
							l-2.184-0.123c-2.136-0.121-3.765-1.948-3.645-4.082l0.414-7.264l0.024-0.435l0.386-6.852L360.386,270.425z"/>
					</g>
				</g>
				<path style="fill:#20120C;" d="M362.737,271.711l4.634-6.567c2.507-3.346-0.725-7.3-3.245-8.508l-8.731-4.186
					c-2.674-1.282-7.486-0.33-8.128,4.489l-0.46,5.622L362.737,271.711z"/>
				<path style="fill:#FE7D6B;" d="M348.009,276.012L348.009,276.012c3.566,1.71,10.622,0.567,12.798-3.971l3.705-6.677
					c2.176-4.539,0.261-9.982-4.278-12.158l0,0c-4.539-2.176-9.982-0.261-12.158,4.278l-2.886,7.07
					C343.014,269.092,344.306,274.237,348.009,276.012z"/>
				<path style="fill:#20120C;" d="M352.57,247.708c3.722-0.563,8.627,3.431,11.012,6.212c0.353-0.898,0.863-0.536,0.863-0.536
					c4.658,3.921,1.332,7.28,1.332,7.28s-0.025,0-0.063-0.001c0,1.425-0.462,4.239-3.286,8.382c0,0,0.909-5.511,2.253-8.414
					c-2.838-0.131-10.942-0.956-14.506-4.337l-0.664-1.263c-0.175-0.3-0.329-0.612-0.445-0.945
					C349.065,254.085,347.296,248.505,352.57,247.708z"/>
				<path style="fill:#FE7D6B;" d="M360.479,272.044c1.027,0.882,2.573,0.758,3.451-0.268l0.874-1.018
					c0.282-0.331,0.462-0.713,0.538-1.109c0.108-0.537,0.034-1.098-0.216-1.59c0,0,0.043-0.076-0.532-0.694
					c-0.019-0.022-0.04-0.042-0.061-0.059c-0.167-0.143-0.348-0.26-0.537-0.351c-0.059-0.029-0.123-0.056-0.185-0.079
					c-0.053-0.022-0.108-0.039-0.163-0.055c-0.049-0.017-0.098-0.031-0.148-0.038c-0.07-0.02-0.141-0.031-0.213-0.042
					c-0.391-0.058-0.789-0.019-1.161,0.119c-0.391,0.135-0.752,0.375-1.044,0.713l-0.324,0.377l-0.55,0.641
					C359.33,269.621,359.451,271.165,360.479,272.044z"/>
				<path style="fill:#20120C;" d="M350.385,255.071c0,0-0.464,2.146-3.235,4.532c0,0,0.923-4.501,2.165-5.78
					c1.242-1.279,1.085,1.136,1.085,1.136L350.385,255.071z"/>
				<path style="fill:#20120C;" d="M364.68,260.63c0,0-4.598,8.232-3.617,7.849c0.981-0.382,1.43-2.109,2.585-1.657
					c1.156,0.452,1.624-5.458,1.624-5.458L364.68,260.63z"/>
				<g>
					<path style="fill:#DB5C4F;" d="M349.952,276.558c0,0,5.558,2.461,8.683-4.159c0,0-1.268,7.969-8.741,6.48L349.952,276.558z"/>
				</g>
				<g>
					<path style="fill:#89532E;" d="M360.784,270.975c-0.088,0.009-0.178-0.026-0.237-0.1c-0.092-0.116-0.072-0.284,0.043-0.376
						l2.137-1.694c0.116-0.092,0.284-0.072,0.376,0.043c0.092,0.116,0.072,0.284-0.043,0.376l-2.137,1.694
						C360.882,270.952,360.833,270.97,360.784,270.975z"/>
				</g>
				<g>
					<path style="fill:#89532E;" d="M348.811,267.701c-0.442-0.334-0.806-0.787-0.601-1.307c0.341-0.866,2.962-2.844,3.259-3.067
						c0.119-0.088,0.286-0.064,0.375,0.054c0.089,0.118,0.064,0.286-0.054,0.375c-1.077,0.806-2.867,2.289-3.082,2.834
						c-0.168,0.426,0.867,1.003,1.365,1.201c0.137,0.054,0.205,0.21,0.15,0.348c-0.055,0.137-0.21,0.205-0.348,0.15
						C349.769,268.247,349.252,268.033,348.811,267.701z"/>
				</g>
				<g>
					<path style="fill:#363435;" d="M348.174,262.054c-0.241,0.39-0.149,0.883,0.205,1.101c0.354,0.218,0.835,0.08,1.076-0.31
						c0.241-0.39,0.149-0.883-0.205-1.101C348.896,261.526,348.414,261.665,348.174,262.054z"/>
				</g>
				<g>
					<path style="fill:#363435;" d="M354.985,262.757c-0.059-0.044-0.099-0.112-0.105-0.191c-0.012-0.147,0.097-0.277,0.244-0.289
						c0.021-0.002,2.148-0.157,2.736,1.902c0.041,0.142-0.042,0.291-0.184,0.331c-0.142,0.041-0.291-0.042-0.331-0.184
						c-0.469-1.64-2.107-1.521-2.177-1.515C355.1,262.816,355.036,262.796,354.985,262.757z"/>
				</g>
				<g>
					<path style="fill:#363435;" d="M349.243,259.123c-0.048-0.037-0.085-0.09-0.1-0.154c-0.033-0.144,0.057-0.288,0.201-0.321
						c1.167-0.267,1.939,0.731,2.184,1.297c0.059,0.136-0.004,0.293-0.139,0.352c-0.136,0.059-0.294-0.004-0.352-0.139
						c-0.024-0.055-0.552-1.222-1.573-0.988C349.384,259.189,349.304,259.169,349.243,259.123z"/>
				</g>
				<g>
					
						<ellipse transform="matrix(0.5255 -0.8508 0.8508 0.5255 -58.2879 427.4562)" style="fill:#363435;" cx="354.071" cy="265.983" rx="0.854" ry="0.775"/>
				</g>
				<g>
					<path style="fill:#89532E;" d="M347.724,270.148c-0.005-0.003-0.008-0.006-0.01-0.008c-0.117-0.09-0.14-0.258-0.05-0.375
						c0.089-0.117,0.257-0.14,0.374-0.051c0.001,0,0.001,0.001,0.002,0.002c0.067,0.05,2.627,1.962,4.304,1.054
						c0.13-0.07,0.292-0.022,0.363,0.108c0.07,0.13,0.022,0.293-0.108,0.363C350.644,272.3,347.941,270.312,347.724,270.148z"/>
				</g>
			</g>
		</g>
		<g>
			<path style="fill:#93BBE5;" d="M377.373,344.078c-0.022,0.292-0.276,0.511-0.568,0.489l-45.586-3.411
				c-0.147-0.011-0.255-0.138-0.244-0.284l0.115-1.537l46.378,3.47L377.373,344.078z"/>
			<g>
				<path style="fill:#93BBE5;" d="M371.745,341.659l1.45,0.108l-0.053,0.714l-1.628-0.122l0.04-0.537
					C371.561,341.726,371.647,341.652,371.745,341.659z"/>
				<path style="fill:#93BBE5;" d="M369.857,341.518l1.449,0.108l-0.053,0.714l-1.628-0.122l0.04-0.537
					C369.672,341.584,369.759,341.51,369.857,341.518z"/>
				<path style="fill:#93BBE5;" d="M367.969,341.377l1.45,0.109l-0.053,0.714l-1.627-0.122l0.04-0.537
					C367.786,341.443,367.871,341.369,367.969,341.377z"/>
				<path style="fill:#93BBE5;" d="M360.102,340.788l1.45,0.108l-0.053,0.714l-1.628-0.122l0.04-0.537
					C359.918,340.855,360.004,340.781,360.102,340.788z"/>
				<path style="fill:#93BBE5;" d="M358.213,340.647l1.45,0.109l-0.053,0.714l-1.627-0.122l0.04-0.537
					C358.03,340.713,358.116,340.639,358.213,340.647z"/>
				<path style="fill:#93BBE5;" d="M336.052,338.988l1.449,0.108l-0.053,0.714l-1.627-0.122l0.04-0.537
					C335.868,339.055,335.953,338.981,336.052,338.988z"/>
				<path style="fill:#93BBE5;" d="M334.163,338.847l1.45,0.108l-0.053,0.714l-1.628-0.122l0.04-0.537
					C333.979,338.914,334.065,338.84,334.163,338.847z"/>
				<path style="fill:#93BBE5;" d="M362.047,340.933l5.418,0.405l-0.053,0.714l-5.596-0.419l0.04-0.537
					C361.863,341,361.948,340.926,362.047,340.933z"/>
				<path style="fill:#93BBE5;" d="M328.034,338.388l5.418,0.405l-0.053,0.714l-5.595-0.419l0.04-0.537
					C327.851,338.455,327.935,338.381,328.034,338.388z"/>
				<path style="fill:#93BBE5;" d="M338.116,339.143l19.25,1.44l-0.053,0.714l-19.428-1.454l0.04-0.537
					C337.932,339.21,338.018,339.136,338.116,339.143z"/>
			</g>
			<g>
				
					<linearGradient id="SVGID_00000048496530299590929110000001257750221543832448_" gradientUnits="userSpaceOnUse" x1="6626.9897" y1="338.4077" x2="6631.5259" y2="338.4077" gradientTransform="matrix(-0.9972 -0.0746 -0.0746 0.9972 6962.2183 495.7793)">
					<stop  offset="0" style="stop-color:#99CEFF"/>
					<stop  offset="1" style="stop-color:#D5E9FF"/>
				</linearGradient>
				<path style="fill:url(#SVGID_00000048496530299590929110000001257750221543832448_);" d="M324.358,338.113l3.944,0.295
					c0.097,0.007,0.171,0.093,0.164,0.19l-0.04,0.537l-4.524-0.339l0.023-0.31C323.941,338.264,324.135,338.097,324.358,338.113z"/>
				
					<linearGradient id="SVGID_00000065042672111440754130000005562156329751418550_" gradientUnits="userSpaceOnUse" x1="6632.4541" y1="338.4077" x2="6636.9907" y2="338.4077" gradientTransform="matrix(-0.9972 -0.0746 -0.0746 0.9972 6962.2183 495.7793)">
					<stop  offset="0" style="stop-color:#99CEFF"/>
					<stop  offset="1" style="stop-color:#D5E9FF"/>
				</linearGradient>
				<path style="fill:url(#SVGID_00000065042672111440754130000005562156329751418550_);" d="M318.908,337.706l3.944,0.295
					c0.098,0.007,0.171,0.093,0.164,0.19l-0.04,0.537l-4.524-0.339l0.023-0.31C318.491,337.856,318.685,337.689,318.908,337.706z"/>
				
					<linearGradient id="SVGID_00000084510541971321372940000002599967227074869669_" gradientUnits="userSpaceOnUse" x1="6637.9189" y1="338.4077" x2="6642.4556" y2="338.4077" gradientTransform="matrix(-0.9972 -0.0746 -0.0746 0.9972 6962.2183 495.7793)">
					<stop  offset="0" style="stop-color:#99CEFF"/>
					<stop  offset="1" style="stop-color:#D5E9FF"/>
				</linearGradient>
				<path style="fill:url(#SVGID_00000084510541971321372940000002599967227074869669_);" d="M313.459,337.298l3.944,0.295
					c0.098,0.007,0.171,0.093,0.164,0.19l-0.04,0.537l-4.524-0.339l0.023-0.31C313.042,337.448,313.236,337.281,313.459,337.298z"/>
				
					<linearGradient id="SVGID_00000145057673526732423730000011607061477769507975_" gradientUnits="userSpaceOnUse" x1="6643.3838" y1="338.4077" x2="6647.9204" y2="338.4077" gradientTransform="matrix(-0.9972 -0.0746 -0.0746 0.9972 6962.2183 495.7793)">
					<stop  offset="0" style="stop-color:#99CEFF"/>
					<stop  offset="1" style="stop-color:#D5E9FF"/>
				</linearGradient>
				<path style="fill:url(#SVGID_00000145057673526732423730000011607061477769507975_);" d="M308.009,336.89l3.944,0.295
					c0.098,0.007,0.171,0.093,0.164,0.19l-0.04,0.537l-4.524-0.338l0.023-0.31C307.592,337.041,307.786,336.874,308.009,336.89z"/>
				
					<linearGradient id="SVGID_00000097468469347762273640000017387562205600578749_" gradientUnits="userSpaceOnUse" x1="6649.8184" y1="338.4077" x2="6652.4692" y2="338.4077" gradientTransform="matrix(-0.9972 -0.0746 -0.0746 0.9972 6962.2183 495.7793)">
					<stop  offset="0" style="stop-color:#99CEFF"/>
					<stop  offset="1" style="stop-color:#D5E9FF"/>
				</linearGradient>
				<path style="fill:url(#SVGID_00000097468469347762273640000017387562205600578749_);" d="M303.472,336.551l2.064,0.154
					c0.098,0.007,0.171,0.093,0.164,0.19l-0.04,0.537l-2.644-0.198l0.023-0.31C303.056,336.701,303.25,336.534,303.472,336.551z"/>
				
					<linearGradient id="SVGID_00000041266199028024223290000009774471358711339395_" gradientUnits="userSpaceOnUse" x1="6653.04" y1="338.4077" x2="6655.6909" y2="338.4077" gradientTransform="matrix(-0.9972 -0.0746 -0.0746 0.9972 6962.2183 495.7793)">
					<stop  offset="0" style="stop-color:#99CEFF"/>
					<stop  offset="1" style="stop-color:#D5E9FF"/>
				</linearGradient>
				<path style="fill:url(#SVGID_00000041266199028024223290000009774471358711339395_);" d="M300.26,336.31l2.063,0.154
					c0.098,0.007,0.171,0.093,0.164,0.19l-0.04,0.537l-2.644-0.198l0.023-0.31C299.843,336.461,300.037,336.294,300.26,336.31z"/>
				
					<linearGradient id="SVGID_00000144337995095962162730000007199731825907375286_" gradientUnits="userSpaceOnUse" x1="6656.0728" y1="338.4077" x2="6658.7236" y2="338.4077" gradientTransform="matrix(-0.9972 -0.0746 -0.0746 0.9972 6962.2183 495.7793)">
					<stop  offset="0" style="stop-color:#99CEFF"/>
					<stop  offset="1" style="stop-color:#D5E9FF"/>
				</linearGradient>
				<path style="fill:url(#SVGID_00000144337995095962162730000007199731825907375286_);" d="M297.236,336.084l2.063,0.154
					c0.098,0.007,0.171,0.093,0.164,0.19l-0.04,0.537l-2.644-0.198l0.023-0.31C296.819,336.234,297.013,336.067,297.236,336.084z"/>
			</g>
			<path style="fill:#A9CBF7;" d="M285.503,299.118l48.554,3.633c0.675,0.051,1.229,0.553,1.345,1.219l6.329,36.161l-51.039-3.819
				l-6.296-35.972C284.278,299.67,284.824,299.067,285.503,299.118z"/>
			<path style="fill:#93BBE5;" d="M341.676,341.407c-0.022,0.292-0.276,0.511-0.568,0.489l-50.1-3.749
				c-0.145-0.011-0.254-0.138-0.243-0.284l0.115-1.537l50.891,3.808L341.676,341.407z"/>
		</g>
	</g>
	<g>
		<g>
			<path style="fill:#A9CBF7;" d="M407.61,227.574h-38.26c-0.823,0-1.49-0.667-1.49-1.49v-16.127c0-0.823,0.667-1.49,1.49-1.49
				h38.26c0.823,0,1.49,0.667,1.49,1.49v16.127C409.1,226.907,408.433,227.574,407.61,227.574z"/>
		</g>
		<g>
			<path style="fill:#93BBE5;" d="M433.287,258.291h-50.174c-0.957,0-1.732-0.775-1.732-1.732v-16.38
				c0-0.957,0.775-1.732,1.732-1.732h50.174c0.957,0,1.732,0.775,1.732,1.732v16.38
				C435.019,257.515,434.243,258.291,433.287,258.291z"/>
		</g>
		<g id="XMLID_247_">
			<path id="XMLID_249_" style="fill-rule:evenodd;clip-rule:evenodd;fill:#A9CBF7;" d="M285.351,124.686
				c-13.461,0-24.056,8.432-24.056,8.432s4.914,28.668,24.056,37.662c19.142-8.994,24.056-37.662,24.056-37.662
				S298.812,124.686,285.351,124.686z"/>
			
				<ellipse id="XMLID_235_" transform="matrix(0.2278 -0.9737 0.9737 0.2278 79.1445 389.8302)" style="fill-rule:evenodd;clip-rule:evenodd;fill:#296ED3;" cx="285.351" cy="145.016" rx="11.386" ry="11.386"/>
			<g id="XMLID_240_">
				<polygon id="XMLID_250_" style="fill:#FFFFFF;" points="283.583,150.822 279.125,146.365 281.245,144.245 283.583,146.583 
					290.206,139.96 292.325,142.08 				"/>
			</g>
		</g>
		<g id="XMLID_234_">
			<g id="XMLID_214_">
				
					<rect id="XMLID_254_" x="330.868" y="161.81" style="fill-rule:evenodd;clip-rule:evenodd;fill:#A9CBF7;" width="30.57" height="25.787"/>
			</g>
			<g id="XMLID_233_">
				<path id="XMLID_236_" style="fill:#A9CBF7;" d="M358.698,167.037h-25.09v-10.106c0-6.917,5.628-12.545,12.545-12.545
					c6.917,0,12.545,5.628,12.545,12.545V167.037z M338.486,162.159h15.333v-5.227c0-4.227-3.439-7.666-7.667-7.666
					c-4.227,0-7.666,3.439-7.666,7.666V162.159z"/>
			</g>
			<g id="XMLID_237_">
				<path id="XMLID_248_" style="fill-rule:evenodd;clip-rule:evenodd;fill:#FFFFFF;" d="M349.85,172.303
					c0-2.042-1.656-3.698-3.698-3.698c-2.042,0-3.698,1.656-3.698,3.698c0,1.408,0.788,2.632,1.946,3.257v5.242h3.503v-5.242
					C349.063,174.936,349.85,173.712,349.85,172.303z"/>
			</g>
		</g>
	</g>
	<g>
		<g>
			<path style="fill:#A9CBF7;" d="M220.681,107.282h-30.146c-5.297,0-9.592,4.294-9.592,9.592v16.194c0,4.95,3.75,9.022,8.564,9.535
				c0.037,3.588-0.902,6.077-0.902,6.077l11.861-6.02h20.215c5.298,0,9.592-4.295,9.592-9.592v-16.194
				C230.273,111.577,225.978,107.282,220.681,107.282z"/>
			<g>
				<circle style="fill:#FFFFFF;" cx="192.11" cy="125.488" r="1.915"/>
				<circle style="fill:#FFFFFF;" cx="205.608" cy="125.488" r="1.915"/>
				<circle style="fill:#FFFFFF;" cx="219.105" cy="125.488" r="1.915"/>
			</g>
		</g>
		<g>
			<path style="fill:#A9CBF7;" d="M292.006,222.21h30.146c5.297,0,9.592,4.294,9.592,9.592v16.194c0,4.95-3.75,9.022-8.564,9.535
				c-0.037,3.588,0.902,6.077,0.902,6.077l-11.861-6.02h-20.215c-5.298,0-9.592-4.295-9.592-9.592v-16.194
				C282.414,226.505,286.708,222.21,292.006,222.21z"/>
			<g>
				<path style="fill:#FFFFFF;" d="M318.661,240.416c0,1.058,0.857,1.915,1.915,1.915c1.058,0,1.915-0.857,1.915-1.915
					c0-1.058-0.857-1.915-1.915-1.915C319.519,238.501,318.661,239.358,318.661,240.416z"/>
				<circle style="fill:#FFFFFF;" cx="307.079" cy="240.416" r="1.915"/>
				<path style="fill:#FFFFFF;" d="M291.666,240.416c0,1.058,0.857,1.915,1.915,1.915c1.058,0,1.915-0.857,1.915-1.915
					c0-1.058-0.857-1.915-1.915-1.915C292.524,238.501,291.666,239.358,291.666,240.416z"/>
			</g>
		</g>
	</g>
</g>
<g id="TEXTS">
	<text transform="matrix(1 0 0 1 374.2621 222.3155)" style="fill:#296ED3; font-family:'Montserrat-Bold'; font-size:17.7682px;">css</text>
	<g>
		<text transform="matrix(1 0 0 1 387.7504 252.9872)" style="fill:#296ED3; font-family:'Montserrat-Bold'; font-size:14.4115px;">HTML</text>
	</g>
</g>
</svg>
